<?xml version="1.0" encoding="UTF-8"?>
<svg width="24px" height="24px" viewBox="0 0 24 24" version="1.1" xmlns="http://www.w3.org/2000/svg" xmlns:xlink="http://www.w3.org/1999/xlink">
    <title>icon/24/8</title>
    <g id="icon/24/8" stroke="none" stroke-width="1" fill="none" fill-rule="evenodd">
        <g id="编组" transform="translate(3.000000, 3.000000)" fill-rule="nonzero">
            <path d="M-2.66404963e-15,9 C-2.66404963e-15,13.9705627 4.02943725,18 9,18 C13.9705627,18 18,13.9705627 18,9 C18,4.02943725 13.9705627,0 9,0 C4.02943725,0 -2.66404963e-15,4.02943725 -2.66404963e-15,9 Z" id="路径" fill="#171A1D"></path>
            <path d="M7.52612024,9.02950243 L9.03179889,7.52382378 L10.5374775,9.02950243 L9.03179889,10.5351811 L7.52612024,9.02950243 Z M12.3172547,9.02952587 L13.8229333,7.52384722 L15.328612,9.02952587 L13.8229333,10.5352045 L12.3172547,9.02952587 Z M2.73500924,9.029479 L4.2406879,7.52380035 L5.74636655,9.029479 L4.2406879,10.5351577 L2.73500924,9.029479 Z M5.11228682,6.65248262 L9.02371443,2.74105502 L10.5293931,4.24673367 L6.61796548,8.15816127 L5.11228682,6.65248262 Z" id="形状" fill="#F5B638"></path>
            <path d="M11.4461478,8.15804411 L7.53472023,4.24663994 L9.04042232,2.74096128 L12.9518499,6.65238889 L11.4461478,8.15804411 Z M6.61824667,9.92078527 L10.5296743,13.8322129 L9.02399563,15.3378915 L5.11256802,11.4264639 L6.61824667,9.92078527 Z" id="形状" fill="#F5B638"></path>
            <polygon id="路径" fill="#F5B638" points="12.9519671 11.4266514 9.04053948 15.338079 7.53486083 13.8324003 11.4462884 9.92097274"></polygon>
        </g>
    </g>
</svg>