<?xml version="1.0" encoding="UTF-8"?>
<svg width="20px" height="20px" viewBox="0 0 20 20" version="1.1" xmlns="http://www.w3.org/2000/svg" xmlns:xlink="http://www.w3.org/1999/xlink">
    <title>InstagramLogo</title>
    <g id="InstagramLogo" stroke="none" stroke-width="1" fill="none" fill-rule="evenodd">
        <g id="文档" transform="translate(3.000000, 2.000000)" fill="#83829b" fill-rule="nonzero">
            <path d="M8.78608138,-2.95701637e-06 C8.96718054,-2.95701637e-06 9.13996,0.0760322502 9.26231735,0.209543773 L9.60859008,0.587997043 L9.62924534,0.588047743 L9.62859008,0.608997043 L14.1737584,5.56823236 C14.2827643,5.6871564 14.34333,5.84256134 14.3435468,6.00388462 L14.3435468,13.6854726 C14.3435468,14.7558402 13.4758415,15.6235454 12.4054739,15.6235454 L2.088663,15.6235454 C1.01829535,15.6235454 0.150590076,14.7558402 0.150590076,13.6854726 L0.150590076,1.93806959 C0.150590076,0.867702317 1.01829535,-2.95701637e-06 2.08866292,-2.95701637e-06 L8.78608138,-2.95701637e-06 Z M7.97259008,1.65599704 L2.08865654,1.6564719 C1.95513661,1.6564719 1.83995111,1.75018292 1.81285387,1.88092454 L1.80705621,1.93807284 L1.80705621,13.6854758 C1.80705621,13.8190579 1.90082161,13.934224 2.0315697,13.9612905 L2.08865718,13.9670756 L12.4054681,13.9670756 C12.538988,13.9670756 12.6541735,13.8733652 12.6812708,13.7426235 L12.6870684,13.6854752 L12.6865901,6.62999704 L10.0930577,6.63085629 C8.97590605,6.63108246 8.05022586,5.76445803 7.97691401,4.64972159 L7.97277282,4.5105779 L7.97259008,1.65599704 Z M10.4839658,10.5878722 C11.0361228,10.5878722 11.3122021,10.8639515 11.3122021,11.4161085 C11.3122021,11.9682655 11.0361228,12.2443448 10.4839658,12.2443448 L4.68631199,12.2443448 C4.13415503,12.2443448 3.85807573,11.9682655 3.85807573,11.4161085 C3.85807573,10.8639515 4.13415503,10.5878722 4.68631199,10.5878722 L10.4839658,10.5878722 Z M7.99925702,7.27492721 C8.55141399,7.27492721 8.82749328,7.5510065 8.82749328,8.10316347 C8.82749328,8.65532043 8.55141399,8.93139972 7.99925702,8.93139972 L4.68631199,8.93139972 C4.13415503,8.93139972 3.85807573,8.65532043 3.85807573,8.10316347 C3.85807573,7.5510065 4.13415503,7.27492721 4.68631199,7.27492721 L7.99925702,7.27492721 Z M11.3825901,4.97399704 L9.62859008,3.06099704 L9.62923245,4.51057143 C9.62923245,4.7408211 9.79736441,4.93214368 10.0176753,4.96775784 L10.0922165,4.97438373 L11.3825901,4.97399704 Z" id="形状结合"></path>
        </g>
    </g>
</svg>