<?xml version="1.0" encoding="UTF-8"?>
<svg width="20px" height="20px" viewBox="0 0 20 20" version="1.1" xmlns="http://www.w3.org/2000/svg" xmlns:xlink="http://www.w3.org/1999/xlink">
    <title>GithubLogo</title>
    <defs>
        <rect id="path-1" x="0" y="0" width="20" height="20"></rect>
    </defs>
    <g id="产品" stroke="none" stroke-width="1" fill="none" fill-rule="evenodd">
        <g id="组件&amp;规范" transform="translate(-499.000000, -1012.000000)">
            <g id="编组-4" transform="translate(180.000000, 968.000000)">
                <g id="GithubLogo" transform="translate(319.000000, 44.000000)">
                    <mask id="mask-2" fill="white">
                        <use xlink:href="#path-1"></use>
                    </mask>
                    <g id="GithubLogo-(Background/Mask)"></g>
                    <g mask="url(#mask-2)" id="Vector">
                        <path d="M20,0 L20,20 L0,20 L0,0 L20,0 Z"></path>
                        <path d="M6.5625,17.125 C7.05978092,17.125 7.53669474,16.9274562 7.88832545,16.5758255 C8.23995616,16.2241947 8.4375,15.7472809 8.4375,15.25 L8.4375,11.5" stroke="#062ef5" stroke-width="1.5" stroke-linecap="round" stroke-linejoin="round" stroke-dasharray="0,0" fill-rule="nonzero"></path>
                        <path d="M13.4375,17.125 C12.9402191,17.125 12.4633053,16.9274562 12.1116745,16.5758255 C11.7600438,16.2241947 11.5625,15.7472809 11.5625,15.25 L11.5625,11.5" stroke="#062ef5" stroke-width="1.5" stroke-linecap="round" stroke-linejoin="round" stroke-dasharray="0,0" fill-rule="nonzero"></path>
                        <path d="M11.875,11.5 L13.125,11.5 C13.6222809,11.5 14.0991947,11.6975438 14.4508255,12.0491745 C14.8024562,12.4008053 15,12.8777191 15,13.375 L15,14 C15,14.4972809 15.1975438,14.9741947 15.5491745,15.3258255 C15.9008053,15.6774562 16.3777191,15.875 16.875,15.875" stroke="#062ef5" stroke-width="1.5" stroke-linecap="round" stroke-linejoin="round" stroke-dasharray="0,0" fill-rule="nonzero"></path>
                        <path d="M8.125,11.5 L6.875,11.5 C6.37771908,11.5 5.90080526,11.6975438 5.54917455,12.0491745 C5.19754384,12.4008053 5,12.8777191 5,13.375 L5,14 C5,14.4972809 4.80245586,14.9741947 4.45082515,15.3258255 C4.09919444,15.6774562 3.62228092,15.875 3.125,15.875" stroke="#062ef5" stroke-width="1.5" stroke-linecap="round" stroke-linejoin="round" stroke-dasharray="0,0" fill-rule="nonzero"></path>
                        <path d="M4.77961626,3.215292 C4.82677993,2.6108802 5.00887672,2.02473684 5.31250468,1.5 C5.99477748,1.49961179 6.66614263,1.67119545 7.26456414,1.9988966 C7.86298566,2.32659775 8.36915772,2.79984402 8.73630807,3.37490667 L8.73630807,3.37500055 L11.2636984,3.37500055 L11.2636984,3.37490667 C11.6308488,2.79984391 12.1370212,2.32659745 12.7354429,1.9988963 C13.3338646,1.67119515 14.0052301,1.49961166 14.687503,1.5 C14.991131,2.02473684 15.1732274,2.6108802 15.2203911,3.215292 C15.2675548,3.81970379 15.1785853,4.42699941 14.9600297,4.99248282 L14.9600297,4.99248282 C15.3941734,5.61877771 15.6262244,6.36294757 15.6250076,7.12500046 L15.6250076,7.75000045 C15.6250076,8.74456226 15.2299153,9.69838989 14.526654,10.4016513 C13.8233927,11.1049127 12.8695652,11.5 11.875,11.5 L8.12500413,11.5 C7.13044247,11.5 6.17661565,11.1049127 5.47335435,10.4016513 C4.77009305,9.69838989 4.375,8.74456226 4.375,7.75000045 L4.375,7.12500046 C4.37378193,6.36294675 4.60583214,5.61877525 5.0399756,4.99247924 L5.03997799,4.99248282 C4.82142242,4.42699941 4.7324526,3.81970379 4.77961626,3.215292 Z" stroke="#062ef5" stroke-width="1.5" stroke-linecap="round" stroke-linejoin="round" stroke-dasharray="0,0" fill-rule="nonzero"></path>
                    </g>
                </g>
            </g>
        </g>
    </g>
</svg>