<?xml version="1.0" encoding="UTF-8"?>
<svg width="20px" height="20px" viewBox="0 0 20 20" version="1.1" xmlns="http://www.w3.org/2000/svg" xmlns:xlink="http://www.w3.org/1999/xlink">
    <title>InstagramLogo</title>
    <g id="InstagramLogo" stroke="none" stroke-width="1" fill="none" fill-rule="evenodd">
        <g id="编组" transform="translate(2.000000, 3.000000)" fill="#83829b" fill-rule="nonzero">
            <path d="M15.95025,2.48349999 L11.11825,10.3635 L7.66224999,4.73150001 L10.40625,0.2595 C10.54225,0.0515000063 10.80625,-0.0365000062 11.03025,0.0275000063 L15.95025,2.48349999 M16.00625,13.0115 C16.00625,13.4675 15.60625,13.6435 15.11825,13.3955 L11.35025,11.5155 L16.00625,3.91550001 L16.00625,13.0115 M5.60625,13.1395 C5.60625,13.5875 5.26224999,13.7955 4.86225,13.5875 L0.44625,11.3955 C0.20625,11.2675 0.00624999375,10.9475 0.00624999375,10.6755 L0.00624999375,0.4995 C0.00624999375,0.1395 0.270249994,-0.0125000062 0.598250006,0.131499994 L5.36625,2.5155 L5.60625,2.88350001 L5.60625,13.1395 M10.63825,11.1555 L6.40625001,9.03549999 L6.40625001,4.23549999 L10.63825,11.1555 Z" id="形状"></path>
        </g>
    </g>
</svg>