<?xml version="1.0" encoding="UTF-8"?>
<svg width="20px" height="20px" viewBox="0 0 20 20" version="1.1" xmlns="http://www.w3.org/2000/svg" xmlns:xlink="http://www.w3.org/1999/xlink">
    <title>InstagramLogo</title>
    <g id="InstagramLogo" stroke="none" stroke-width="1" fill="none" fill-rule="evenodd" stroke-dasharray="0,0" stroke-linecap="round" stroke-linejoin="round">
        <g id="TelegramLogo" transform="translate(2.000000, 1.000000)" stroke="#83829b" stroke-width="1.5">
            <g id="Vector">
                <path d="M11.9000414,14.718684 C11.9813199,14.7902091 12.0797839,14.8393928 12.1857883,14.861418 C12.2917926,14.8834432 12.4017009,14.8775543 12.5047445,14.844327 C12.607788,14.8110997 12.7004323,14.7516743 12.7736018,14.6718729 C12.8467713,14.5920715 12.8979554,14.4946316 12.9221401,14.389099 L15.8607094,1.56624401 C15.886116,1.45537755 15.880787,1.33967986 15.8452969,1.23161826 C15.8098067,1.12355665 15.7455009,1.02722833 15.659309,0.953013654 C15.5731172,0.878798977 15.468307,0.829511837 15.3561731,0.810463211 C15.2440392,0.791414584 15.1288341,0.803326796 15.0229702,0.844916182 L0.60447467,6.50932618 C0.478814187,6.55869306 0.372517534,6.64742308 0.301490271,6.76223938 C0.230463007,6.87705568 0.198524097,7.01178484 0.210452715,7.14626669 C0.222381332,7.28074853 0.277536034,7.40775252 0.367663907,7.50827425 C0.45779178,7.60879598 0.57804673,7.67743077 0.710434683,7.70390858 L4.87525905,8.53687383 L11.9000414,14.718684 Z" fill-rule="nonzero"></path>
                <line x1="4.875" y1="8.53688049" x2="15.5087662" y2="0.856933594"></line>
                <path d="M8.38336563,11.6243444 L5.94194176,14.0657674 C5.85453407,14.1531749 5.74316997,14.2127002 5.62193213,14.2368159 C5.50069429,14.2609317 5.37502756,14.2485543 5.2608239,14.2012499 C5.14662024,14.1539455 5.04900883,14.0738382 4.98033275,13.971058 C4.91165667,13.8682778 4.875,13.7474407 4.875,13.6238277 L4.875,8.5369873" fill-rule="nonzero"></path>
            </g>
        </g>
    </g>
</svg>