<?xml version="1.0" encoding="UTF-8"?>
<svg width="20px" height="20px" viewBox="0 0 20 20" version="1.1" xmlns="http://www.w3.org/2000/svg" xmlns:xlink="http://www.w3.org/1999/xlink">
    <title>InstagramLogo</title>
    <g id="InstagramLogo" stroke="none" stroke-width="1" fill="none" fill-rule="evenodd" stroke-dasharray="0,0" stroke-linecap="round" stroke-linejoin="round">
        <g id="TwitterLogo" transform="translate(3.000000, 2.000000)" fill-rule="nonzero" stroke="#062ef5" stroke-width="1.5">
            <g id="Vector">
                <path d="M4.49993136,10.1250026 C1.16659999,8.87500088 -0.0833992738,5.95833429 0.749933563,1.37500288 C2.41659926,3.45833619 4.49993136,4.70833617 6.99992987,5.12500282 L6.99992987,3.87522758 C6.9999984,3.15722737 7.24726948,2.46114323 7.70017078,1.90400362 C8.15307209,1.34686402 8.78398524,0.962644289 9.48683802,0.815941124 C10.1896908,0.669237958 10.9216215,0.768997452 11.5595764,1.09844777 C12.1975312,1.42789809 12.7026063,1.96694888 12.9898855,2.62497236 L15.7499247,2.62500276 L13.2499261,5.12500282 C13.2499261,9.50000266 10.124928,13.8750019 4.49993136,13.8750019 C2.83326569,13.8750019 1.58326642,13.4583353 0.749933563,12.625002 C2.83326568,12.2083357 4.08326495,11.3750026 4.49993136,10.1250026 Z"></path>
            </g>
        </g>
    </g>
</svg>