<?xml version="1.0" encoding="UTF-8"?>
<svg width="48px" height="48px" viewBox="0 0 48 48" version="1.1" xmlns="http://www.w3.org/2000/svg" xmlns:xlink="http://www.w3.org/1999/xlink">
    <title>Icon</title>
    <defs>
        <rect id="path-1" x="0" y="0" width="26.88" height="26.88"></rect>
    </defs>
    <g id="产品" stroke="none" stroke-width="1" fill="none" fill-rule="evenodd">
        <g id="首页" transform="translate(-599.000000, -124.000000)">
            <g id="Frame-507" transform="translate(278.000000, 90.000000)">
                <g id="Stock-Products" transform="translate(288.000000, 0.000000)">
                    <g id="Icon" transform="translate(33.000000, 34.000000)">
                        <path d="M24,0 C37.254834,-2.4348735e-15 48,10.745166 48,24 C48,37.254834 37.254834,48 24,48 C10.745166,48 1.623249e-15,37.254834 0,24 C-1.623249e-15,10.745166 10.745166,2.4348735e-15 24,0 Z" id="Rectangle-25" fill="#062ef5" opacity="0.0470385189"></path>
                        <g id="CurrencyCircleDollar" transform="translate(10.560000, 10.560000)">
                            <mask id="mask-2" fill="white">
                                <use xlink:href="#path-1"></use>
                            </mask>
                            <g id="CurrencyCircleDollar-(Background/Mask)"></g>
                            <g mask="url(#mask-2)" id="Vector">
                                <path d="M26.88,0 L26.88,26.88 L0,26.88 L0,0 L26.88,0 Z"></path>
                                <line x1="13.44" y1="7.56" x2="13.44" y2="9.24" stroke="#062ef5" stroke-width="1.44" stroke-linecap="round" stroke-linejoin="round" stroke-dasharray="0,0"></line>
                                <line x1="13.44" y1="17.64" x2="13.44" y2="19.32" stroke="#062ef5" stroke-width="1.44" stroke-linecap="round" stroke-linejoin="round" stroke-dasharray="0,0"></line>
                                <path d="M13.44,23.52 C7.87296965,23.52 3.36,19.0070304 3.36,13.44 C3.36,7.87296965 7.87296965,3.36 13.44,3.36 C19.0070304,3.36 23.52,7.87296965 23.52,13.44 C23.52,19.0070304 19.0070304,23.52 13.44,23.52 Z" stroke="#062ef5" stroke-width="1.44" stroke-linecap="round" stroke-linejoin="round" stroke-dasharray="0,0"></path>
                                <path d="M10.92,17.64 L14.7,17.64 C15.2569546,17.64 15.7910978,17.4187506 16.1849242,17.0249242 C16.5787506,16.6310978 16.8,16.0969546 16.8,15.54 C16.8,14.9830454 16.5787506,14.4489022 16.1849242,14.0550758 C15.7910978,13.6612494 15.2569546,13.44 14.7,13.44 L12.18,13.44 C11.6230454,13.44 11.0889022,13.2187506 10.6950758,12.8249242 C10.3012494,12.4310978 10.08,11.8969546 10.08,11.34 C10.08,10.7830454 10.3012494,10.2489022 10.6950758,9.85507576 C11.0889022,9.46124936 11.6230454,9.24 12.18,9.24 L15.96,9.24" stroke="#062ef5" stroke-width="1.44" stroke-linecap="round" stroke-linejoin="round" stroke-dasharray="0,0" fill-rule="nonzero"></path>
                            </g>
                        </g>
                    </g>
                </g>
            </g>
        </g>
    </g>
</svg>