<?xml version="1.0" encoding="UTF-8"?>
<svg width="48px" height="48px" viewBox="0 0 48 48" version="1.1" xmlns="http://www.w3.org/2000/svg" xmlns:xlink="http://www.w3.org/1999/xlink">
    <title>Incon</title>
    <defs>
        <rect id="path-1" x="0" y="0" width="26.88" height="26.88"></rect>
    </defs>
    <g id="产品" stroke="none" stroke-width="1" fill="none" fill-rule="evenodd">
        <g id="首页" transform="translate(-888.000000, -124.000000)">
            <g id="Frame-507" transform="translate(278.000000, 90.000000)">
                <g id="Sales-Products" transform="translate(576.000000, 0.000000)">
                    <g id="Incon" transform="translate(34.000000, 34.000000)">
                        <path d="M24,0 C37.254834,-2.4348735e-15 48,10.745166 48,24 C48,37.254834 37.254834,48 24,48 C10.745166,48 1.623249e-15,37.254834 0,24 C-1.623249e-15,10.745166 10.745166,2.4348735e-15 24,0 Z" id="Rectangle-27" fill="#062ef5" opacity="0.0470385189"></path>
                        <g id="Wallet" transform="translate(10.560000, 10.560000)">
                            <mask id="mask-2" fill="white">
                                <use xlink:href="#path-1"></use>
                            </mask>
                            <g id="Wallet-(Background/Mask)"></g>
                            <g mask="url(#mask-2)" id="Vector">
                                <path d="M26.88,0 L26.88,26.88 L0,26.88 L0,0 L26.88,0 Z"></path>
                                <path d="M4.2,6.72 L4.2,20.16 C4.2,20.6055637 4.37699942,21.032878 4.69206053,21.3479391 C5.00712164,21.6630002 5.43443628,21.84 5.88,21.84 L22.68,21.84 C22.9027819,21.84 23.1164398,21.7515009 23.2739703,21.5939703 C23.4315009,21.4364398 23.52,21.2227819 23.52,21 L23.52,9.24 C23.52,9.01721814 23.4315009,8.80356102 23.2739703,8.64603046 C23.1164398,8.48849991 22.9027819,8.4 22.68,8.4 L5.88,8.4 C5.43443628,8.4 5.00712164,8.22300018 4.69206053,7.90793907 C4.37699942,7.59287796 4.2,7.16556372 4.2,6.72 C4.2,6.27443628 4.37699942,5.84712164 4.69206053,5.53206053 C5.00712164,5.21699942 5.43443628,5.04 5.88,5.04 L20.16,5.04" stroke="#062ef5" stroke-width="1.44" stroke-linecap="round" stroke-linejoin="round" stroke-dasharray="0,0" fill-rule="nonzero"></path>
                                <path d="M18.9,16.38 C18.2041212,16.38 17.64,15.8158788 17.64,15.12 C17.64,14.4241212 18.2041212,13.86 18.9,13.86 C19.5958788,13.86 20.16,14.4241212 20.16,15.12 C20.16,15.8158788 19.5958788,16.38 18.9,16.38 Z" fill="#062ef5"></path>
                            </g>
                        </g>
                    </g>
                </g>
            </g>
        </g>
    </g>
</svg>