<?xml version="1.0" encoding="UTF-8"?>
<svg width="48px" height="48px" viewBox="0 0 48 48" version="1.1" xmlns="http://www.w3.org/2000/svg" xmlns:xlink="http://www.w3.org/1999/xlink">
    <title>Icon</title>
    <defs>
        <rect id="path-1" x="0" y="0" width="26.88" height="26.88"></rect>
    </defs>
    <g id="产品" stroke="none" stroke-width="1" fill="none" fill-rule="evenodd">
        <g id="首页" transform="translate(-1172.000000, -124.000000)">
            <g id="Frame-507" transform="translate(278.000000, 90.000000)">
                <g id="Job-Application" transform="translate(861.000000, 0.000000)">
                    <g id="Icon" transform="translate(33.000000, 34.000000)">
                        <path d="M24,0 C37.254834,-2.4348735e-15 48,10.745166 48,24 C48,37.254834 37.254834,48 24,48 C10.745166,48 1.623249e-15,37.254834 0,24 C-1.623249e-15,10.745166 10.745166,2.4348735e-15 24,0 Z" id="Rectangle-29" fill="#062ef5" opacity="0.0470385189"></path>
                        <g id="ChartPie" transform="translate(10.560000, 10.560000)">
                            <mask id="mask-2" fill="white">
                                <use xlink:href="#path-1"></use>
                            </mask>
                            <g id="ChartPie-(Background/Mask)"></g>
                            <g mask="url(#mask-2)" id="Vector">
                                <path d="M26.88,0 L26.88,26.88 L0,26.88 L0,0 L26.88,0 Z"></path>
                                <path d="M13.44,23.52 C7.87296965,23.52 3.36,19.0070304 3.36,13.44 C3.36,7.87296965 7.87296965,3.36 13.44,3.36 C19.0070304,3.36 23.52,7.87296965 23.52,13.44 C23.52,19.0070304 19.0070304,23.52 13.44,23.52 Z" stroke="#062ef5" stroke-width="1.44" stroke-linecap="round" stroke-linejoin="round" stroke-dasharray="0,0"></path>
                                <line x1="13.44" y1="13.44" x2="13.44" y2="3.36" stroke="#062ef5" stroke-width="1.44" stroke-linecap="round" stroke-linejoin="round" stroke-dasharray="0,0"></line>
                                <line x1="22.1695129" y1="8.4" x2="4.71043945" y2="18.48" stroke="#062ef5" stroke-width="1.44" stroke-linecap="round" stroke-linejoin="round" stroke-dasharray="0,0"></line>
                            </g>
                        </g>
                    </g>
                </g>
            </g>
        </g>
    </g>
</svg>