<?xml version="1.0" encoding="UTF-8"?>
<svg width="206px" height="115px" viewBox="0 0 206 115" version="1.1" xmlns="http://www.w3.org/2000/svg" xmlns:xlink="http://www.w3.org/1999/xlink">
    <title>Group 538</title>
    <g id="Group-538" stroke="none" stroke-width="1" fill="none" fill-rule="evenodd">
        <g id="编组" transform="translate(43.000000, 44.000000)">
            <g fill="#062ef5" id="Vector">
                <path d="M17.9829971,0.275088623 C17.5644046,0.45664688 17.1859169,0.722483604 16.8701266,1.05673101 C16.5522479,1.3908548 16.3032879,1.78676674 16.1380066,2.22099372 C15.9727253,2.6552207 15.8944879,3.11892284 15.9079327,3.58460799 C15.8989143,5.46645083 15.1867713,7.2737712 13.9169832,8.63736719 L13.2241342,9.33163976 C12.9472312,9.57825728 12.6570883,9.80892279 12.3550553,10.022565 C11.8267461,10.309061 11.3854632,10.7380294 11.0792002,11.262815 C10.8492812,11.6553163 10.6997128,12.0913792 10.6395428,12.5446199 C10.5793728,12.9978606 10.6098529,13.4588582 10.7291386,13.8997211 C10.8484244,14.340584 11.0540359,14.7521483 11.3335342,15.1095131 C11.6130324,15.4668779 11.9606066,15.7626147 12.3552284,15.978831 C13.4207767,16.6672935 14.3021243,17.6154109 14.9200446,18.7379554 C15.5400038,19.8622593 15.8778529,21.1258182 15.9034494,22.4159078 C15.8912274,22.8813379 15.9699461,23.3445891 16.1350058,23.7785928 C16.3000655,24.2125964 16.5481558,24.6086495 16.8647811,24.9436093 C17.1807285,25.2777435 17.5593134,25.5434784 17.9779648,25.7249716 C18.3966162,25.9064649 18.8467619,26 19.3015635,26 C19.7563652,26 20.2065101,25.9064649 20.6251615,25.7249716 C21.0438129,25.5434784 21.4223986,25.2777435 21.738346,24.9436093 C22.0555838,24.6090951 22.3040712,24.2131193 22.4691715,23.7790088 C22.6342718,23.3448984 22.7126461,22.8814314 22.6996777,22.4159078 C22.6925935,21.8118388 22.5298774,21.2203278 22.2278998,20.7008845 C21.9259222,20.1814413 21.4953337,19.7523863 20.9794537,19.4568845 L19.4009727,18.0244867 C18.1504623,16.6647781 17.4519963,14.8708722 17.4467528,13.005365 C17.4467528,10.4686822 18.8986664,7.8906107 20.9851444,6.54239797 C21.5003547,6.24650658 21.9303738,5.81750488 22.2321074,5.29838538 C22.5338409,4.77926589 22.6966896,4.18826412 22.7043332,3.58460799 C22.7166,3.11915712 22.6378854,2.65587935 22.4727922,2.22186535 C22.3076989,1.78785134 22.059541,1.39181228 21.7428292,1.05690717 C21.1048152,0.38147993 20.2253904,-8.24241757e-16 19.3066502,-7.11728535e-16 L19.3064779,-7.11707436e-16 C18.8517055,-6.56013888e-16 18.4015896,0.093530366 17.9829971,0.275088623 Z M7.39755789,19.1926112 C6.98515114,19.3682083 6.61074484,19.6252426 6.29581929,19.948969 C5.73948909,20.5209456 5.39351837,21.2715316 5.31635708,22.0739164 C5.23919579,22.8763012 5.43557521,23.6812942 5.87231683,24.3528955 C6.14966171,24.7822637 6.51730415,25.1430226 6.94845311,25.4088795 C7.37960206,25.6747364 7.86339484,25.8389939 8.3645727,25.8896818 C8.86575056,25.9403696 9.37168669,25.8762102 9.84551125,25.70188 C10.3193358,25.5275498 10.7491106,25.2474407 11.1035146,24.881966 C11.5789668,24.3926772 11.9024908,23.7709712 12.0335594,23.0947289 C12.1646279,22.4184865 12.0974121,21.7177777 11.8403337,21.0803765 C11.5832935,20.4438014 11.1473675,19.8992746 10.5875847,19.515534 C10.029472,19.1328033 9.37251055,18.9282826 8.70027109,18.9279907 L8.6990628,18.9279907 L8.6990628,18.9257008 C8.25225606,18.9263095 7.80996463,19.0170141 7.39755789,19.1926112 Z M4.06443808,9.57238109 C3.40437562,9.43751561 2.71993471,9.50668854 2.09855028,9.7710631 C1.47675993,10.0358017 0.945888633,10.4830748 0.573180581,11.0562247 C0.199751467,11.6305807 0.000380044716,12.3046302 -7.60529417e-10,12.994093 C0.00118645097,13.9182742 0.359786083,14.8045581 0.997718291,15.459976 C1.55226678,16.0303448 2.28394053,16.385717 3.06709805,16.4650671 C3.85025557,16.5444172 4.6360277,16.3427933 5.28948216,15.8948202 C5.84914737,15.5111452 6.28476858,14.9664881 6.54119596,14.3298025 C6.79825283,13.6923848 6.8654398,12.991663 6.73434042,12.3154197 C6.60324104,11.6391765 6.27968495,11.0174808 5.80420377,10.5282115 L5.80420377,10.5282115 C5.33021554,10.0400279 4.72450053,9.70724657 4.06443808,9.57238109 Z M22.1990953,10.5292681 C21.6424314,11.1010123 21.2961479,11.8515531 21.2187927,12.6539942 C21.1414375,13.4564353 21.3377565,14.2615437 21.7745572,14.9331954 C22.0530577,15.3609368 22.421145,15.7201195 22.8522012,15.9847685 C23.2832573,16.2494175 23.7665083,16.4129184 24.2670083,16.4634482 C24.7675083,16.5139781 25.2727475,16.4502735 25.7461903,16.2769416 C26.2196331,16.1036096 26.6494461,15.8249823 27.0045474,15.4612085 C27.4800286,14.9719393 27.8035849,14.3502428 27.9346843,13.6739996 C28.0657836,12.9977563 27.9985966,12.2970353 27.7415398,11.6596175 C27.4849812,11.0227296 27.0494097,10.4777672 26.4898253,10.0935424 C25.9310332,9.71047424 25.2732572,9.50594389 24.6002695,9.50599995 L24.6002695,9.50599995 C23.6987761,9.50879674 22.8352005,9.87681249 22.1990953,10.5292681 Z M9.03267693,0.103319907 C8.24957679,0.0242005709 7.46392928,0.225911783 6.81054244,0.673842218 C6.25105153,1.05763627 5.81547217,1.60217894 5.55882711,2.23868489 C5.30177024,2.87610265 5.23458327,3.5768229 5.36568265,4.25306615 C5.49678203,4.92930939 5.82033812,5.55100549 6.29581929,6.04027472 C6.76968774,6.52824012 7.37518013,6.86090214 8.03499693,6.99579273 C8.69481373,7.13068332 9.37902029,7.0616818 10.0002676,6.79759795 C10.6220638,6.53097949 11.1529282,6.08275466 11.5262636,5.50915283 C11.899599,4.935551 12.0987793,4.26211801 12.0988163,3.57333631 C12.0984381,2.64923209 11.7402099,1.76279139 11.1023063,1.10745409 L11.1023063,1.10745409 C10.5475049,0.537456224 9.81577707,0.182439243 9.03267693,0.103319907 Z"></path>
            </g>
            <g transform="translate(34.000000, -0.000000)" fill="#080539" fill-rule="nonzero" id="形状结合">
                <g>
                    <path d="M46.7485797,12.4827025 C47.2107978,13.2832877 46.9342067,14.3129543 46.1273148,14.7954876 L44.0868919,16.005128 L41.883457,17.2973777 L35.8624501,20.7959756 L35.0991684,21.2371082 C36.8189123,22.7479455 39.3846894,23.084605 41.5243504,21.9182692 L41.6497117,21.8479251 C42.9677523,21.086954 43.9037695,19.8635029 44.2987272,18.4377338 C44.5503995,17.529215 45.4942582,16.984278 46.4068946,17.2205828 C47.3195311,17.4568876 47.8553484,18.3849504 47.6036761,19.2934692 C46.9694,21.5831605 45.4591006,23.5572455 43.3422163,24.7794292 C39.0383583,27.2642628 33.5815577,25.8909101 31.0723015,21.7210913 L30.989757,21.5810631 C28.546508,17.3492317 30.0114059,11.9176297 34.253684,9.36824288 L34.3961204,9.28433641 C38.7477991,6.77189352 44.2781835,8.2038508 46.7485797,12.4827025 Z M14.7545481,0.500273661 C15.4002898,1.14004618 15.419506,2.15934424 14.8150393,2.82172751 L14.7453098,2.89381945 L4.66459012,12.7305154 L14.7453098,22.5673375 C15.3959714,23.2022725 15.4230553,24.2213977 14.823719,24.8882731 L14.7545481,24.9608833 C14.1088065,25.6006558 13.0723354,25.6272865 12.3941097,25.0379803 L12.3202636,24.969967 L3.551,16.412 L3.60779316,23.9665413 C3.61473559,24.9012609 2.8497267,25.6645346 1.89909798,25.6714069 C0.980156889,25.6779595 0.224149197,24.9752846 0.168498658,24.0841035 L0.165262042,23.9912613 L4.68802522e-05,1.74691454 C-0.00689555094,0.812194961 0.758113336,0.0489212602 1.70874205,0.0420489176 C2.62768315,0.035496308 3.38369084,0.738171226 3.43934138,1.62935229 L3.44257799,1.72219451 L3.497,9.101 L12.3202636,0.491189995 C12.9950238,-0.167261038 14.0848901,-0.163194142 14.7545481,0.500273661 Z M57.114754,8.74635948 C61.5436835,8.74635948 65.1439059,12.2350977 65.228004,16.5701319 L65.229508,16.72531 L65.229508,23.9789013 C65.229508,24.9136458 64.4588506,25.6714059 63.5081966,25.6714059 C62.589231,25.6714059 61.8384623,24.9633212 61.7894321,24.0717643 L61.7868851,23.9789013 L61.7868851,16.72531 C61.7868851,14.1881463 59.6951008,12.1313688 57.114754,12.1313688 C54.578896,12.1313688 52.5148986,14.1178343 52.4444801,16.5945138 L52.4426229,16.72531 L52.4426229,23.9789013 C52.4426229,24.9136458 51.6719655,25.6714059 50.7213115,25.6714059 C49.8023459,25.6714059 49.0515772,24.9633212 49.002547,24.0717643 L49,23.9789013 L49,16.72531 C49,12.3186573 52.6330991,8.74635948 57.114754,8.74635948 Z M82.9754097,0.0420498814 C83.8943753,0.0420498814 84.645144,0.750134635 84.6941741,1.64169153 L84.6967211,1.73455453 L84.6963711,16.8044539 C84.6529499,21.7121285 80.5931791,25.6714059 75.5983606,25.6714059 C70.5734748,25.6714059 66.5,21.6661023 66.5,16.72531 C66.5,11.7845176 70.5734748,7.77921397 75.5983606,7.77921397 C76.5490146,7.77921397 77.319672,8.53697411 77.319672,9.47171862 C77.319672,10.4064631 76.5490146,11.1642233 75.5983606,11.1642233 C72.4747829,11.1642233 69.9426229,13.6540066 69.9426229,16.72531 C69.9426229,19.7966133 72.4747829,22.2863966 75.5983606,22.2863966 C78.6546505,22.2863966 81.1478837,19.9014521 81.2508699,16.910508 L81.2539601,16.7676311 L81.2540982,1.73455453 C81.2540982,0.799810022 82.0247556,0.0420498814 82.9754097,0.0420498814 Z M18.9180336,0.0420498814 C19.8369991,0.0420498814 20.5877679,0.750134635 20.636798,1.64169153 L20.639345,1.73455453 L20.639345,22.2863966 L28.7377056,22.2863966 C29.6566712,22.2863966 30.4074399,22.9944814 30.45647,23.8860383 L30.459017,23.9789013 C30.459017,24.8824876 29.7388805,25.6206919 28.8321491,25.6689016 L28.7377056,25.6714059 L18.9180336,25.6714059 C17.999068,25.6714059 17.2482992,24.9633212 17.1992691,24.0717643 L17.1967221,23.9789013 L17.1967221,1.73455453 C17.1967221,0.799810022 17.9673795,0.0420498814 18.9180336,0.0420498814 Z M36.2139863,12.1454964 L36.088625,12.2158404 C33.927044,13.4638299 32.8873969,15.8997974 33.3404171,18.1854228 L33.3700352,18.3267517 L37.7076111,15.8130078 L40.8528234,13.9786488 L42.7079103,12.8886229 L42.6386102,12.8259387 C40.9194244,11.3158201 38.3536473,10.9791606 36.2139863,12.1454964 Z"></path>
                </g>
            </g>
        </g>
    </g>
</svg>