<?xml version="1.0" encoding="UTF-8"?>
<svg width="133px" height="133px" viewBox="0 0 133 133" version="1.1" xmlns="http://www.w3.org/2000/svg" xmlns:xlink="http://www.w3.org/1999/xlink">
    <title>Group 536</title>
    <defs>
        <filter x="-29.3%" y="-29.3%" width="158.7%" height="158.7%" filterUnits="objectBoundingBox" id="filter-1">
            <feGaussianBlur stdDeviation="8.1" in="SourceGraphic"></feGaussianBlur>
        </filter>
    </defs>
    <g id="产品" stroke="none" stroke-width="1" fill="none" fill-rule="evenodd">
        <g id="弹框2" transform="translate(-652.000000, -348.000000)">
            <g id="Group-505" transform="translate(517.000000, 274.000000)">
                <g id="编组-4" transform="translate(28.000000, 93.000000)">
                    <g id="Group-536" transform="translate(132.000000, 0.000000)">
                        <path d="M41.4,89 C64.2645886,89 82.8,70.4645886 82.8,47.6 C82.8,24.7354114 64.2645886,6.2 41.4,6.2 C18.5354114,6.2 -2.13162821e-14,24.7354114 -2.13162821e-14,47.6 C-2.13162821e-14,70.4645886 18.5354114,89 41.4,89 Z" id="Ellipse-29" fill="#062ef5" opacity="0.202639002" filter="url(#filter-1)"></path>
                        <path d="M41.4,82.8 C64.2645886,82.8 82.8,64.2645886 82.8,41.4 C82.8,18.5354114 64.2645886,0 41.4,0 C18.5354114,0 0,18.5354114 0,41.4 C0,64.2645886 18.5354114,82.8 41.4,82.8 Z" id="Ellipse-29" fill="#062ef5"></path>
                        <path d="M47.9012453,21.4337936 C47.2285073,21.720097 46.6202236,22.1393011 46.1127034,22.6663835 C45.601827,23.193271 45.2017126,23.8175937 44.936082,24.5023363 C44.6704514,25.1870788 44.5447127,25.9183014 44.5663204,26.6526511 C44.5518266,29.6201725 43.407311,32.4701777 41.3665801,34.6204636 L40.2530728,35.7152781 C39.8080502,36.1041749 39.341749,36.4679167 38.856339,36.8048141 C38.0072705,37.2565962 37.2980658,37.9330464 36.8058575,38.7605929 C36.4363447,39.3795373 36.1959669,40.067175 36.0992652,40.7819007 C36.0025634,41.4966264 36.0515492,42.2235841 36.2432585,42.918791 C36.4349678,43.6139979 36.7654149,44.2630032 37.2146085,44.8265399 C37.6638021,45.3900767 38.2224034,45.8564309 38.8566171,46.1973873 C40.5691054,47.2830397 41.9855569,48.778148 42.9786431,50.5483142 C43.9750061,52.3212551 44.5179779,54.3137903 44.5591152,56.3481623 C44.5394726,57.0821097 44.6659847,57.8126212 44.9312593,58.4970117 C45.1965338,59.1814021 45.5952504,59.8059472 46.1041125,60.3341531 C46.6118851,60.861057 47.2203251,61.2801005 47.8931577,61.5663014 C48.5659903,61.8525023 49.2894387,62 50.02037,62 C50.7513012,62 51.4747484,61.8525023 52.147581,61.5663014 C52.8204136,61.2801005 53.4288549,60.861057 53.9366274,60.3341531 C54.4464739,59.80665 54.8458287,59.1822265 55.1111685,58.4976678 C55.3765083,57.813109 55.502467,57.0822572 55.4816248,56.3481623 C55.4702396,55.395592 55.2087315,54.4628246 54.7234104,53.6437026 C54.2380893,52.8245805 53.546072,52.1479938 52.7169791,51.6820101 L50.1801348,49.4232291 C48.1703858,47.2790732 47.0478512,44.4502216 47.0394242,41.5084603 C47.0394242,37.5083065 49.3728567,33.4428861 52.726125,31.3168583 C53.5541415,30.8502604 54.2452437,30.1737577 54.7301726,29.3551462 C55.2151015,28.5365347 55.4768225,27.6045703 55.4891069,26.6526511 C55.5088215,25.9186708 55.3823158,25.1881174 55.1169874,24.5037107 C54.851659,23.819304 54.4528338,23.1947809 53.9438326,22.6666613 C52.918453,21.6015645 51.5050916,21 50.0285449,21 L50.028268,21 C49.2973839,21 48.5739832,21.1474902 47.9012453,21.4337936 Z M30.8889323,51.2652715 C30.2261358,51.5421747 29.6244113,51.9474979 29.118281,52.4579896 C28.2241789,53.3599527 27.6681545,54.543569 27.5441453,55.8088682 C27.4201361,57.0741673 27.7357459,58.3435793 28.437652,59.4026429 C28.8833849,60.0797236 29.4742388,60.6486125 30.1671568,61.0678484 C30.8600747,61.4870844 31.6375988,61.7461058 32.4430633,61.8260366 C33.2485277,61.9059675 34.0616393,61.8047931 34.8231431,61.5298877 C35.5846468,61.2549824 36.2753563,60.8132719 36.8449342,60.2369463 C37.6090537,59.4653756 38.1290031,58.484993 38.339649,57.4186109 C38.5502948,56.3522288 38.4422695,55.2472648 38.0291078,54.2421322 C37.6160074,53.2383022 36.915412,52.3796253 36.0157611,51.7744959 C35.1187943,51.170959 34.0629634,50.8484457 32.9825785,50.8479854 L32.9806366,50.8479854 L32.9806366,50.8443743 C32.2625544,50.8453342 31.5517289,50.9883684 30.8889323,51.2652715 Z M25.5321326,36.0949086 C24.471318,35.8822362 23.3713236,35.9913165 22.3726701,36.4082149 C21.3733642,36.8256874 20.5201782,37.5310025 19.9211831,38.4348158 C19.3210291,39.3405311 19.0006108,40.4034554 19,41.4906851 C19.0019068,42.9480478 19.5782276,44.3456493 20.6034758,45.3791929 C21.4947145,46.2786206 22.6706187,46.8390153 23.9292647,46.9641443 C25.1879107,47.0892733 26.4507588,46.7713279 27.5009535,46.0649089 C28.4004154,45.4598829 29.1005209,44.6010005 29.5126364,43.5969963 C29.9257635,42.5918375 30.0337425,41.4868531 29.8230471,40.4204696 C29.6123517,39.354086 29.0923508,38.3737197 28.3281846,37.6021797 L28.3281846,37.6021797 C27.5664178,36.8323517 26.5929473,36.3075811 25.5321326,36.0949086 Z M54.6771174,37.6038459 C53.782479,38.5054425 53.225952,39.6889876 53.1016311,40.9543755 C52.9773103,42.2197634 53.2928229,43.4893573 53.9948241,44.5485004 C54.4424141,45.2230157 55.0339831,45.7894192 55.7267519,46.2067503 C56.4195206,46.6240815 57.1961741,46.8819097 58.0005491,46.9615914 C58.8049241,47.0412731 59.6169157,46.940816 60.3778059,46.6674848 C61.1386961,46.3941536 61.8294669,45.9547797 62.4001655,45.3811365 C63.1643317,44.6095966 63.6843328,43.629229 63.8950283,42.5628455 C64.1057237,41.4964619 63.9977446,40.3914787 63.5846175,39.3863199 C63.1722912,38.3819967 62.4722656,37.5226329 61.5729335,36.91674 C60.6748748,36.3126709 59.6177348,35.9901423 58.5361474,35.9902307 L58.5361474,35.9902307 C57.0873187,35.994641 55.6994294,36.5749735 54.6771174,37.6038459 Z M33.5168022,21.1629275 C32.2582484,21.0381624 30.9956006,21.3562455 29.9455146,22.0625973 C29.0463328,22.667811 28.3462946,23.5265129 27.9338293,24.5302339 C27.5207022,25.5353926 27.4127231,26.6403746 27.6234185,27.7067582 C27.834114,28.7731417 28.3541148,29.7535087 29.118281,30.5250486 C29.8798553,31.2945325 30.8529681,31.8191149 31.9133879,32.031827 C32.9738078,32.2445391 34.0734255,32.135729 35.0718586,31.7192891 C36.071174,31.2988523 36.9243489,30.5920362 37.5243522,29.6875102 C38.1243556,28.7829843 38.4444667,27.7210322 38.4445262,26.6348765 C38.4439183,25.1776352 37.8681944,23.7797864 36.8429923,22.7463699 L36.8429923,22.7463699 C35.9513472,21.8475271 34.775356,21.2876927 33.5168022,21.1629275 Z" id="Vector" fill="#FFFFFF"></path>
                    </g>
                </g>
            </g>
        </g>
    </g>
</svg>