<?xml version="1.0" encoding="UTF-8"?>
<svg width="20px" height="20px" viewBox="0 0 20 20" version="1.1" xmlns="http://www.w3.org/2000/svg" xmlns:xlink="http://www.w3.org/1999/xlink">
    <title>切片</title>
    <defs>
        <filter id="filter-1">
            <feColorMatrix in="SourceGraphic" type="matrix" values="0 0 0 0 0.705882 0 0 0 0 0.705882 0 0 0 0 0.764706 0 0 0 1.000000 0"></feColorMatrix>
        </filter>
    </defs>
    <g id="产品" stroke="none" stroke-width="1" fill="none" fill-rule="evenodd">
        <g id="首页" transform="translate(-30.000000, -543.000000)">
            <g id="形状" transform="translate(30.000000, 541.000000)" filter="#83829b">
                <g transform="translate(0.000000, 2.000000)">
                    <g id="教程-2" transform="translate(1.666667, 1.666667)" fill="#83829b" fill-rule="nonzero">
                        <rect id="矩形" opacity="0" x="0" y="0" width="15.8333333" height="15.8333333"></rect>
                        <path d="M15.8228656,14.0199246 L15.8228656,3.68605277 L15.7826884,3.58912224 C15.7564858,3.52629689 15.2464088,2.33082032 13.316152,1.85873272 L13.316152,1.84437264 L13.262,1.84437264 C12.795594,1.73487704 12.2505803,1.66666667 11.6094905,1.66666667 C9.54298024,1.66666667 8.45469968,2.3631305 7.91317966,2.91958356 C7.37165964,2.36492551 6.28163224,1.66666667 4.21512197,1.66666667 C0.854204162,1.66666667 0.0716203899,3.51193682 0.0401772919,3.58912224 L0,3.68605277 L0,13.9481242 C0,14.3466164 0.120531876,14.639203 0.359848788,14.818704 C0.735419125,15.1005206 1.21579979,14.9461497 1.39572418,14.8887094 L1.44987619,14.8671693 C3.19671496,14.0683899 6.04406217,14.632023 6.90525369,14.8905044 C7.02229188,14.9264046 7.26684931,15 7.53062197,15 C7.66862223,15 7.81011617,14.9748699 7.94287592,14.9192246 C8.27826897,15.0502603 8.63811775,14.9353796 8.79009273,14.8869144 L8.84424473,14.8653743 C10.5910835,14.0665949 13.4401776,14.630228 14.2996222,14.8887094 C14.4166604,14.9246096 14.6612179,14.998205 14.9249905,14.998205 C15.1590669,14.998205 15.4106117,14.9389697 15.6010171,14.7451086 C15.8176251,14.5315024 15.8560556,14.2389158 15.8228656,14.0199246 Z M5.2614784,9.23801831 L2.62549868,9.23801831 C2.34076396,9.23801831 2.1084344,9.00107701 2.1084344,8.70669539 C2.1084344,8.41410878 2.33901712,8.17537246 2.62549868,8.17537246 L5.2614784,8.17537246 C5.54621312,8.17537246 5.77854268,8.41231377 5.77854268,8.70669539 C5.77854268,8.999282 5.54621312,9.23801831 5.2614784,9.23801831 Z M5.2614784,7.0175911 L2.62549868,7.0175911 C2.34076396,7.0175911 2.1084344,6.78064979 2.1084344,6.48626817 C2.1084344,6.19368157 2.33901712,5.95494525 2.62549868,5.95494525 L5.2614784,5.95494525 C5.54621312,5.95494525 5.77854268,6.19188656 5.77854268,6.48626817 C5.77854268,6.77885478 5.54621312,7.0175911 5.2614784,7.0175911 Z M14.7904839,13.9247891 C14.7380788,13.915814 14.6734457,13.8996589 14.5930911,13.8745288 C13.9782039,13.6896428 12.612176,13.3988512 11.1780213,13.3988512 C10.2364752,13.3988512 9.26348604,13.5245019 8.45644652,13.8852989 C8.44771233,13.8888889 8.43897813,13.8906839 8.43024394,13.8924789 L8.43024394,3.9265841 C8.55252265,3.72913301 8.95778925,3.2175552 9.97270258,2.93035362 L9.97270258,6.56704362 L11.6653894,5.56722312 L13.3178988,6.57781368 L13.3178988,2.95009873 C14.2856475,3.24089032 14.6716989,3.73451804 14.7922308,3.9265841 L14.7922308,13.9247891 L14.7904839,13.9247891 Z" id="形状"></path>
                    </g>
                </g>
            </g>
        </g>
    </g>
</svg>