<?xml version="1.0" encoding="UTF-8"?>
<svg width="24px" height="24px" viewBox="0 0 24 24" version="1.1" xmlns="http://www.w3.org/2000/svg" xmlns:xlink="http://www.w3.org/1999/xlink">
    <title>icon/24/3</title>
    <g id="icon/24/3" stroke="none" stroke-width="1" fill="none" fill-rule="evenodd">
        <path d="M16.191,3 C19.28,3 21,4.69099997 21,7.58849993 L21,7.58849993 L21,17.4019999 C21,20.3469998 19.28,22 16.191,22 L16.191,22 L7.80999994,22 C4.76999998,22 3,20.3469998 3,17.4019999 L3,17.4019999 L3,7.58849993 C3,4.69099997 4.76999998,3 7.80999994,3 L7.80999994,3 Z M7.86999986,16.3350017 C7.5699999,16.3050018 7.27999995,16.4450016 7.11999998,16.7050013 C6.96000001,16.955001 6.96000001,17.2850006 7.11999998,17.5450003 C7.27999995,17.7949999 7.5699999,17.9449998 7.86999986,17.9049998 L7.86999986,17.9049998 L15.7099986,17.9049998 C16.1089986,17.8649999 16.4099983,17.5240003 16.4099983,17.1250008 C16.4099983,16.7150013 16.1089986,16.3750017 15.7099986,16.3350017 L15.7099986,16.3350017 Z M15.7101642,12.1699973 L7.87016139,12.1699973 C7.43916124,12.1699973 7.09016113,12.5209971 7.09016113,12.9509967 C7.09016113,13.3809964 7.43916124,13.7309961 7.87016139,13.7309961 L7.87016139,13.7309961 L15.7101642,13.7309961 C16.1401643,13.7309961 16.4901642,13.3809964 16.4901642,12.9509967 C16.4901642,12.5209971 16.1401643,12.1699973 15.7101642,12.1699973 L15.7101642,12.1699973 Z M10.8591576,8 L7.87016035,8 L7.87016035,8.00999998 C7.43916077,8.00999998 7.09016113,8.35999939 7.09016113,8.78999864 C7.09016113,9.2199979 7.43916077,9.56999731 7.87016035,9.56999731 L7.87016035,9.56999731 L10.8591576,9.56999731 C11.2901571,9.56999731 11.6401569,9.21999787 11.6401569,8.77899862 C11.6401569,8.34999938 11.2901571,8 10.8591576,8 L10.8591576,8 Z" id="Document" fill="#83829b"></path>
    </g>
</svg>