<?xml version="1.0" encoding="UTF-8"?>
<svg width="20px" height="20px" viewBox="0 0 20 20" version="1.1" xmlns="http://www.w3.org/2000/svg" xmlns:xlink="http://www.w3.org/1999/xlink">
    <title>切片</title>
    <defs>
        <filter id="filter-1">
            <feColorMatrix in="SourceGraphic" type="matrix" values="0 0 0 0 0.705882 0 0 0 0 0.705882 0 0 0 0 0.764706 0 0 0 1.000000 0"></feColorMatrix>
        </filter>
    </defs>
    <g id="产品" stroke="none" stroke-width="1" fill="none" fill-rule="evenodd">
        <g id="首页" transform="translate(-30.000000, -183.000000)">
            <g id="形状" transform="translate(30.000000, 181.000000)" filter="#062ef5">
                <g transform="translate(0.000000, 2.000000)">
                    <path d="M12.5046336,2.65870497 C12.2523569,2.76345012 12.0242505,2.91681746 11.8339304,3.10965251 C11.6423518,3.30241623 11.4923089,3.53082697 11.3926974,3.78134253 C11.293086,4.0318581 11.2459339,4.29937856 11.2540368,4.56804307 C11.2486016,5.65372163 10.8194083,6.69640646 10.0541342,7.48309646 L9.63656898,7.88363832 C9.46968548,8.02591766 9.29482255,8.15899392 9.11279377,8.28224906 C8.79439311,8.44753518 8.52844133,8.69501696 8.34386323,8.99777791 C8.20529593,9.22422095 8.11515427,9.47579572 8.07889111,9.73728073 C8.04262795,9.99876575 8.06099763,10.2647259 8.1328886,10.5190699 C8.20477957,10.7734139 8.32869724,11.0108548 8.49714485,11.2170268 C8.66559246,11.4231988 8.87506794,11.5938162 9.11289807,11.7185563 C9.75508121,12.1157462 10.2862505,12.6627371 10.6586578,13.3103589 C11.032294,13.9589958 11.2359084,14.6879721 11.2513348,15.4322545 C11.2439689,15.7007719 11.2914109,15.9680322 11.3908889,16.2184189 C11.4903669,16.4688056 11.6398856,16.6972978 11.8307089,16.8905438 C12.0211236,17.0833136 12.2492886,17.2366221 12.5016008,17.3413298 C12.753913,17.4460374 13.0252062,17.5 13.2993054,17.5 C13.5734046,17.5 13.8446973,17.4460374 14.0970095,17.3413298 C14.3493218,17.2366221 14.5774873,17.0833136 14.767902,16.8905438 C14.9590944,16.6975549 15.1088524,16.4691073 15.2083548,16.2186589 C15.3078573,15.9682106 15.3550918,15.7008258 15.347276,15.4322545 C15.3430065,15.0837532 15.244941,14.7424968 15.0629456,14.442818 C14.8809501,14.1431392 14.6214437,13.8956075 14.3105338,13.7251257 L13.3592172,12.8987423 C12.6055613,12.1142951 12.1846109,11.0793494 12.1814507,10.0030952 C12.1814507,8.53962433 13.0564879,7.0522754 14.3139635,6.27446037 C14.6244697,6.1037538 14.883633,5.85625282 15.0654814,5.5567608 C15.2473297,5.25726878 15.3454751,4.91630622 15.3500818,4.56804307 C15.3574747,4.29951373 15.3100351,4.03223809 15.2105369,3.78184539 C15.1110388,3.5314527 14.9614793,3.30296863 14.7706039,3.10975414 C14.3860865,2.72008458 13.856076,2.5 13.302371,2.5 L13.3022672,2.5 C13.0281856,2.5 12.7569104,2.55395983 12.5046336,2.65870497 Z M6.12501628,13.5726603 C5.87646758,13.6739663 5.65082092,13.8222553 5.46102205,14.0090206 C5.12573375,14.3390071 4.91722462,14.7720375 4.87072116,15.2349518 C4.8242177,15.6978661 4.94257137,16.1622851 5.20578618,16.5497474 C5.372936,16.7974599 5.59450622,17.0055899 5.85435046,17.1589689 C6.11419469,17.3123479 6.40576623,17.4071119 6.70781539,17.4363549 C7.00986455,17.4655979 7.31478141,17.4285828 7.60034532,17.3280077 C7.88590923,17.2274326 8.14492529,17.0658312 8.35851698,16.8549804 C8.64506182,16.5726984 8.84004283,16.2140218 8.91903503,15.823882 C8.99802723,15.4337422 8.95751773,15.0294871 8.80258209,14.6617557 C8.64766945,14.2945008 8.38494618,13.9803507 8.04757709,13.7589619 C7.71121453,13.5381557 7.31527794,13.4201631 6.91013362,13.4199947 L6.90940541,13.4199947 L6.90940541,13.4186735 C6.64012456,13.4190247 6.37356499,13.4713543 6.12501628,13.5726603 Z M4.1162164,8.02252755 C3.7184109,7.94472055 3.30591303,7.984628 2.93141795,8.13715179 C2.55667823,8.28988562 2.23673348,8.54792776 2.01211032,8.87859116 C1.7870526,9.20995041 1.66689571,9.59882513 1.66666667,9.9965921 C1.66738172,10.5297736 1.88350203,11.0410912 2.2679701,11.4192169 C2.60218459,11.7482758 3.04314868,11.9532983 3.51514094,11.9990772 C3.98713319,12.0448561 4.46070122,11.9285346 4.85452422,11.6700886 C5.19182245,11.4487376 5.45436202,11.1345124 5.6089053,10.7671938 C5.76382797,10.3994528 5.80432012,9.99519017 5.72530933,9.60504984 C5.64629854,9.2149095 5.45129822,8.8562389 5.16473591,8.5739682 L5.16473591,8.5739682 C4.87907336,8.29232381 4.51402189,8.10033456 4.1162164,8.02252755 Z M15.0455857,8.57457776 C14.7100963,8.90443019 14.5013987,9.33743448 14.4547783,9.80038127 C14.408158,10.2633281 14.5264753,10.7278137 14.7897257,11.115305 C14.957572,11.3620789 15.1794103,11.5692997 15.4391986,11.7219818 C15.6989869,11.874664 15.9902319,11.9689914 16.2918726,11.9981432 C16.5935132,12.027295 16.89801,11.9905424 17.1833439,11.8905432 C17.4686777,11.790544 17.7277168,11.6297975 17.9417287,11.419928 C18.2282911,11.1376573 18.4232915,10.7789862 18.5023023,10.3888459 C18.5813131,9.99870557 18.5408209,9.59444343 18.3858982,9.22670242 C18.2312759,8.85926709 17.9687663,8.5448657 17.6315167,8.32319756 C17.2947447,8.10219667 16.8983172,7.9841984 16.4927219,7.98423074 L16.4927219,7.98423074 C15.9494112,7.98584427 15.4289527,8.19816105 15.0455857,8.57457776 Z M7.1104675,2.55960764 C6.63850982,2.51396187 6.1650169,2.63033372 5.77123465,2.88875513 C5.43404147,3.11017477 5.17152713,3.424334 5.01685265,3.79154898 C4.86192998,4.15928999 4.82143783,4.56355168 4.90044862,4.95369201 C4.97945941,5.34383234 5.17445973,5.70250317 5.46102205,5.98477388 C5.7466124,6.26629238 6.11152969,6.45821277 6.50918714,6.53603426 C6.90684458,6.61385576 7.31920122,6.57404719 7.69361363,6.42169113 C8.06835693,6.26787278 8.3882975,6.00928153 8.61329875,5.6783574 C8.83830001,5.34743327 8.9583417,4.95891423 8.958364,4.56154018 C8.95813604,4.02840313 8.74223957,3.51699503 8.35778877,3.13891582 L8.35778877,3.13891582 C8.02342188,2.8100709 7.58242517,2.60525341 7.1104675,2.55960764 Z" id="Vector" fill="#062ef5"></path>
                </g>
            </g>
        </g>
    </g>
</svg>