<?xml version="1.0" encoding="UTF-8"?>
<svg width="20px" height="20px" viewBox="0 0 20 20" version="1.1" xmlns="http://www.w3.org/2000/svg" xmlns:xlink="http://www.w3.org/1999/xlink">
    <title>切片</title>
    <defs>
        <filter id="filter-1">
            <feColorMatrix in="SourceGraphic" type="matrix" values="0 0 0 0 0.705882 0 0 0 0 0.705882 0 0 0 0 0.764706 0 0 0 1.000000 0"></feColorMatrix>
        </filter>
    </defs>
    <g id="产品" stroke="none" stroke-width="1" fill="none" fill-rule="evenodd">
        <g id="首页" transform="translate(-30.000000, -607.000000)">
            <g id="形状" transform="translate(30.000000, 605.000000)" filter="#83829b">
                <g transform="translate(0.000000, 2.000000)">
                    <g id="中英文-英文02-01" transform="translate(2.500000, 2.500000)" fill="#83829b" fill-rule="nonzero">
                        <rect id="矩形" opacity="0" x="0" y="0" width="15" height="15"></rect>
                        <path d="M8.484375,7.0078125 L8.34375,7.0078125 L8.8828125,10.03125 C9.24609375,9.90234375 9.57421875,9.71484375 9.85546875,9.45703125 C9.5625,9.09375 9.31640625,8.6953125 9.12890625,8.2734375 L9.703125,8.203125 C9.85546875,8.51953125 10.0429688,8.8125 10.2421875,9.05859375 C10.6640625,8.54296875 10.9921875,7.86328125 11.2148437,6.99609375 L8.484375,7.0078125 L8.484375,7.0078125 Z M10.6523438,9.45703125 C10.9804688,9.73828125 11.3554688,9.94921875 11.765625,10.078125 L12.0234375,10.1601562 L11.8710938,10.7226562 L11.6132812,10.640625 C11.109375,10.4882812 10.6523438,10.21875 10.2539062,9.8671875 C9.890625,10.1953125 9.45703125,10.453125 8.98828125,10.6054687 L9.3515625,12.6445312 L7.18359375,12.6445312 L6.890625,13.9804687 L13.734375,13.9804687 C14.0507812,13.9804687 14.3203125,13.7226562 14.3203125,13.3945312 L14.3203125,3.515625 C14.3203125,3.19921875 14.0625,2.9296875 13.734375,2.9296875 L7.6171875,2.9296875 L8.07421875,5.4609375 L8.0625,5.44921875 L8.109375,5.73046875 L8.12109375,5.6953125 L8.25,6.421875 L9.65625,6.421875 L9.65625,5.8359375 L10.7460937,5.8359375 L10.7460937,6.421875 L12.5625,6.421875 L12.5625,7.0078125 L11.8007812,7.0078125 C11.5546875,8.02734375 11.15625,8.84765625 10.6523438,9.45703125 Z M6.5859375,12.6445312 L1.27734375,12.6445312 C0.6328125,12.6445312 0.1171875,12.1171875 0.1171875,11.484375 L0.1171875,1.59375 C0.1171875,0.94921875 0.64453125,0.43359375 1.27734375,0.43359375 L7.08984375,0.43359375 L7.453125,2.35546875 L13.7226562,2.35546875 C14.3671875,2.35546875 14.8828125,2.8828125 14.8828125,3.515625 L14.8828125,13.40625 C14.8828125,14.0507812 14.3554688,14.5664062 13.7226562,14.5664062 L6.1640625,14.5664062 L6.5859375,12.6445312 Z M3.84375,8.16796875 L3.84375,7.55859375 L2.6953125,7.55859375 L2.6953125,6.65625 L3.76171875,6.65625 L3.76171875,6.046875 L2.6953125,6.046875 L2.6953125,5.2734375 L3.84375,5.2734375 L3.84375,4.6640625 L2.015625,4.6640625 L2.015625,8.15625 L3.84375,8.15625 L3.84375,8.16796875 L3.84375,8.16796875 Z M6.64453125,8.16796875 L6.64453125,6.421875 C6.64453125,6.10546875 6.57421875,5.859375 6.43359375,5.6953125 C6.29296875,5.51953125 6.0703125,5.4375 5.7890625,5.4375 C5.625,5.4375 5.47265625,5.47265625 5.34375,5.53125 C5.21484375,5.6015625 5.109375,5.70703125 5.05078125,5.82421875 L5.015625,5.82421875 L4.921875,5.484375 L4.41796875,5.484375 L4.41796875,8.15625 L5.07421875,8.15625 L5.07421875,6.90234375 C5.07421875,6.5859375 5.12109375,6.36328125 5.203125,6.22265625 C5.28515625,6.09375 5.4140625,6.0234375 5.6015625,6.0234375 C5.73046875,6.0234375 5.8359375,6.0703125 5.89453125,6.1640625 C5.953125,6.2578125 5.98828125,6.3984375 5.98828125,6.59765625 L5.98828125,8.16796875 L6.64453125,8.16796875 L6.64453125,8.16796875 Z" id="形状"></path>
                    </g>
                </g>
            </g>
        </g>
    </g>
</svg>