<?xml version="1.0" encoding="UTF-8"?>
<svg width="24px" height="24px" viewBox="0 0 24 24" version="1.1" xmlns="http://www.w3.org/2000/svg" xmlns:xlink="http://www.w3.org/1999/xlink">
    <title>icon/24/2</title>
    <g id="icon/24/2" stroke="none" stroke-width="1" fill="none" fill-rule="evenodd">
        <path d="M8.93333418,13.558075 C10.1083343,13.558075 11.0500011,14.5089092 11.0500011,15.6922436 L11.0500011,15.6922436 L11.0500011,18.5330791 C11.0500011,19.7080801 10.1083343,20.6664143 8.93333418,20.6664143 L8.93333418,20.6664143 L6.11666697,20.6664143 C4.95000014,20.6664143 4,19.7080801 4,18.5330791 L4,18.5330791 L4,15.6922436 C4,14.5089092 4.95000014,13.558075 6.11666697,13.558075 L6.11666697,13.558075 Z M18.5500964,13.558075 C19.7167637,13.558075 20.6667643,14.5089092 20.6667643,15.6922436 L20.6667643,15.6922436 L20.6667643,18.5330791 C20.6667643,19.7080801 19.7167637,20.6664143 18.5500964,20.6664143 L18.5500964,20.6664143 L15.7334281,20.6664143 C14.5584274,20.6664143 13.6167603,19.7080801 13.6167603,18.5330791 L13.6167603,18.5330791 L13.6167603,15.6922436 C13.6167603,14.5089092 14.5584274,13.558075 15.7334281,13.558075 L15.7334281,13.558075 Z M8.93333418,4 C10.1083343,4 11.0500011,4.95833348 11.0500011,6.1341669 L11.0500011,6.1341669 L11.0500011,8.97500016 C11.0500011,10.1583335 10.1083343,11.1083336 8.93333418,11.1083336 L8.93333418,11.1083336 L6.11666697,11.1083336 C4.95000014,11.1083336 4,10.1583335 4,8.97500016 L4,8.97500016 L4,6.1341669 C4,4.95833348 4.95000014,4 6.11666697,4 L6.11666697,4 Z M18.5500964,4 C19.7167637,4 20.6667643,4.95833348 20.6667643,6.1341669 L20.6667643,6.1341669 L20.6667643,8.97500016 C20.6667643,10.1583335 19.7167637,11.1083336 18.5500964,11.1083336 L18.5500964,11.1083336 L15.7334281,11.1083336 C14.5584274,11.1083336 13.6167603,10.1583335 13.6167603,8.97500016 L13.6167603,8.97500016 L13.6167603,6.1341669 C13.6167603,4.95833348 14.5584274,4 15.7334281,4 L15.7334281,4 Z" id="Category" fill="#062ef5"></path>
    </g>
</svg>