<?xml version="1.0" encoding="UTF-8"?>
<svg width="24px" height="24px" viewBox="0 0 24 24" version="1.1" xmlns="http://www.w3.org/2000/svg" xmlns:xlink="http://www.w3.org/1999/xlink">
    <title>icon/24/4</title>
    <g id="icon/24/4" stroke="none" stroke-width="1" fill="none" fill-rule="evenodd">
        <g id="挖矿" transform="translate(3.000000, 3.000000)" fill="#062ef5" fill-rule="nonzero">
            <path d="M10.9506092,5.20332256 L10.8073891,5.06010239 L12.1903101,3.71876143 L12.1903101,3.71876144 C12.4214313,3.49344955 12.4261397,3.12343945 12.2008293,2.89231827 C12.2004036,2.89188157 12.1999772,2.89144554 12.1995501,2.89101017 L9.87646341,0.525567418 L9.87646341,0.525567417 C9.64808355,0.294987641 9.27675964,0.290869339 9.04332304,0.516327406 L7.63114079,1.886159 L7.43941057,1.69442878 L7.43941055,1.69442875 C6.97145995,1.23174063 6.21896033,1.22968328 5.74848858,1.68980879 L2.21802846,5.18099886 L2.21802847,5.18099885 C1.76727115,5.63113175 1.75432972,6.35750848 2.1887685,6.82341076 C0.393125807,8.74610901 -0.115838168,12.214181 0.788136267,14.1060732 L5.19022537,9.83410223 L5.726146,10.3707935 L5.72614605,10.3707935 C6.19353178,10.8344201 6.94680561,10.8361363 7.41629741,10.3746434 L10.9475155,6.88345334 L10.9475156,6.88345328 C11.4123206,6.42209702 11.4151179,5.67129381 10.953761,5.20648879 C10.9527078,5.20542773 10.9516526,5.20436867 10.9505955,5.20331161 L10.9506092,5.20332256 Z M16.9104162,14.0714229 L16.5292657,13.651773 L11.2947996,8.4173069 L8.4011423,11.2940363 L13.6155944,16.5092463 L14.0414055,16.9081062 C14.3363152,17.1152358 14.6835862,17.2546066 15.0693567,17.283866 L15.0693567,17.283866 C16.2019005,17.3742402 17.1934583,16.5298432 17.2846493,15.3973698 L17.2846493,15.3973699 C17.3194601,14.9252757 17.1872778,14.4559607 16.9111994,14.0714283 L16.9104162,14.0714229 Z" id="形状"></path>
        </g>
    </g>
</svg>