<?xml version="1.0" encoding="UTF-8"?>
<svg width="24px" height="24px" viewBox="0 0 24 24" version="1.1" xmlns="http://www.w3.org/2000/svg" xmlns:xlink="http://www.w3.org/1999/xlink">
    <title>icon/24/5</title>
    <g id="icon/24/5" stroke="none" stroke-width="1" fill="none" fill-rule="evenodd">
        <path d="M20.2653169,8.49431574 C19.8163372,7.42825697 19.1632757,6.44420199 18.346939,5.62416401 L18.2244898,5.50115719 C16.5510396,3.90205869 14.3061318,3 11.9795939,3 C9.57143516,3 7.3265367,3.94305495 5.61223869,5.62413657 L5.61223869,5.66513885 C3.93877912,7.38722988 3,9.64234937 3,12.0204896 C3,13.0045427 3.16326529,13.9065995 3.44897969,14.8086488 C3.73469353,15.6286943 4.10204124,16.407736 4.59183693,17.1457833 L4.67346967,17.2277877 L4.67346967,20.671981 C4.67346967,20.83599 4.83673496,21 5,21 L11.9795965,21 C13.2040876,21 14.3469542,20.7539867 15.4897946,20.3029621 C16.5510198,19.8519374 17.5306131,19.1959014 18.346933,18.3758465 L18.4693821,18.2528397 C20.102035,16.5717468 21,14.3576217 21,11.9795003 C20.9591836,10.7904358 20.7142862,9.64236572 20.2653065,8.49432006 L20.2653169,8.49431574 Z M15.2040998,13.4555869 L11.9796025,16.5717537 C11.9387861,16.612756 11.8571534,16.6537581 11.7755206,16.6537581 C11.6938879,16.6537581 11.6530715,16.6127558 11.5714388,16.5717537 L8.38776119,13.4965925 L8.34694482,13.4555902 C7.57143342,12.6765467 7.36735344,11.6924898 7.73469927,10.7494424 C8.14286297,9.72438737 9.16327034,9.02734757 10.2244975,9.02734757 C10.7142931,9.02734757 11.2040888,9.19135648 11.6530685,9.47837221 L11.7347013,9.51937449 L11.8163338,9.47837221 C12.2653135,9.19135704 12.7551092,9.02734757 13.2449049,9.02734757 C14.3061301,9.02734757 15.3265431,9.72438549 15.7347031,10.7494424 C16.1836828,11.6924936 15.9796009,12.6765579 15.2040914,13.4555902 L15.2040998,13.4555869 Z" id="形状" fill="#062ef5" fill-rule="nonzero"></path>
    </g>
</svg>