<?xml version="1.0" encoding="UTF-8"?>
<svg width="24px" height="24px" viewBox="0 0 24 24" version="1.1" xmlns="http://www.w3.org/2000/svg" xmlns:xlink="http://www.w3.org/1999/xlink">
    <title>icon/24/6</title>
    <defs>
        <rect id="path-1" x="0" y="0" width="17.28" height="17.28"></rect>
    </defs>
    <g id="icon/24/6" stroke="none" stroke-width="1" fill="none" fill-rule="evenodd">
        <g id="Frame-1" transform="translate(3.000000, 3.000000)">
            <path d="M0,0 L17.28,0 L17.28,17.28 L0,17.28 L0,0 Z" id="Frame-1-(Background)"></path>
            <g id="icon">
                <mask id="mask-2" fill="white">
                    <use xlink:href="#path-1"></use>
                </mask>
                <g id="icon-(Background/Mask)"></g>
                <path d="M9.78792374,5.78516611 L10.9936423,2.95750662 L16.2727345,0.986983154 L9.78792374,5.78516611 Z" id="Vector" fill="#E17726" fill-rule="nonzero" mask="url(#mask-2)"></path>
                <path d="M7.74193034,5.83009655 L6.593981,2.95750657 L1.31489485,0.986983154 L7.74193034,5.83009655 Z M12.2127616,14.7485551 L15.9074309,15.7656632 L16.9655201,12.1702348 L13.9383891,12.1129612 L12.2127616,14.7485551 Z M1.68026367,15.7656632 L5.36851409,14.7485551 L3.64979954,12.1124679 L0.62859387,12.1702348 L1.68026367,15.7656632 Z" id="Vector" fill="#E27625" mask="url(#mask-2)"></path>
                <path d="M4.14376251,9.20781056 L7.79992426,9.3742017 L7.67796983,5.43907611 L5.169265,7.65992844 L4.14376251,9.20781056 Z M9.87117323,5.39513319 L9.78773047,9.37469506 L13.4438932,9.20830391 L12.4174016,7.65992844 L9.87117323,5.39513319 Z M7.58119633,13.6801264 L5.67633855,12.1959374 L5.36824325,14.7485848 L7.58119633,13.6801264 Z M12.2124992,14.7485848 L11.9113167,12.1959374 L10.0059646,13.6801264 L12.2124992,14.7485848 Z" id="Vector" fill="#E27625" mask="url(#mask-2)"></path>
                <path d="M10.0055319,13.6801258 L10.1857475,15.1134559 L10.1659978,15.7207567 L12.2125581,14.7485814 L10.0055319,13.6801258 Z M7.42079298,15.721251 L7.40795561,15.1134559 L7.58125895,13.6801258 L5.36830766,14.7485814 L7.42079298,15.721251 Z" id="Vector" fill="#D5BFB2" mask="url(#mask-2)"></path>
                <path d="M5.62496592,10.7117257 L6.92054401,10.1167701 L7.45921617,11.2489146 L5.62496592,10.7117257 Z M10.6660682,10.1167701 L11.9685581,10.7117257 L10.1278894,11.2489146 L10.6660682,10.1167701 Z" id="Vector" fill="#233447" mask="url(#mask-2)"></path>
                <path d="M5.68934006,12.1129711 L3.64969406,12.1702447 L5.36840794,14.7485654 L5.68934006,12.1129711 Z M12.2126523,14.7485654 L13.9377837,12.1702447 L11.8981381,12.1129711 L12.2126523,14.7485654 Z M9.78788738,9.37467871 L10.1280753,11.2489226 L10.6662539,10.1167728 L11.9687439,10.7117312 L13.444536,9.20779431 L9.78788738,9.37467871 Z M6.92073092,10.1167728 L7.45940291,11.2489226 L7.79959083,9.37467871 L4.14343552,9.20828766 L5.62515325,10.7117312 L6.92073092,10.1167728 Z" id="Vector" fill="#CC6228" mask="url(#mask-2)"></path>
                <path d="M5.67683066,12.1959209 L5.62548118,10.7117319 L4.14376251,9.20779431 L5.67683066,12.1959209 Z M11.9113074,12.1959209 L13.444376,9.20828766 L11.9690753,10.7117319 L11.9113074,12.1959209 Z M7.45973199,11.2489236 L7.8892874,13.4628635 L7.98606079,10.5448475 L7.79992013,9.37467879 L7.45973199,11.2489236 Z M9.60849572,10.5389224 L9.69835683,13.4628635 L10.1279127,11.2489236 L9.78821793,9.37467879 L9.60849572,10.5389224 Z" id="Vector" fill="#E27525" mask="url(#mask-2)"></path>
                <path d="M9.69833465,13.4628603 L10.0059352,13.6801068 L11.9107902,12.1959164 L11.9685581,10.711726 L10.1278894,11.2489182 L9.69833465,13.4628603 Z M5.67631538,12.1959164 L7.58117043,13.6801068 L7.88926528,13.4628603 L7.45971001,11.2489182 L5.62496592,10.711726 L5.67631538,12.1959164 Z" id="Vector" fill="#F5841F" mask="url(#mask-2)"></path>
                <path d="M10.1857475,15.1134688 L10.0188631,14.9727525 L7.56842158,14.9727525 L7.40795561,15.1134688 L7.42079298,15.7207708 L5.36830766,14.7485934 L6.08670195,15.3371335 L7.54324067,16.3418983 L10.0381184,16.3418983 L11.5005817,15.3371335 L12.2125581,14.7485934 L10.1659978,15.7212651 L10.1857475,15.1134688 Z" id="Vector" fill="#C0AC9D" fill-rule="nonzero" mask="url(#mask-2)"></path>
                <path d="M9.69795851,13.4628766 L7.88987492,13.4628766 L7.58178023,13.6801229 L7.40897016,15.113456 L7.56894285,14.9727397 L10.0193849,14.9727397 L10.1862694,15.113456 L10.0060537,13.6801229 L9.69795851,13.4628766 Z" id="Vector" fill="#161616" fill-rule="nonzero" mask="url(#mask-2)"></path>
                <path d="M17.0936696,3.45075489 L16.2730713,0.986983154 L10.0064995,5.62519361 L12.4184291,7.65940989 L15.8242599,8.65183145 L16.5747478,7.77494576 L16.2473965,7.53794943 L16.767307,7.06494493 L16.3693518,6.75783762 L16.888767,6.36086919 L16.5490741,6.09869195 L17.0936696,3.45075489 Z M1.04557815,6.09869195 L0.693046436,6.36136303 L1.21888147,6.75783762 L0.821419319,7.06494493 L1.34083579,7.53844326 L1.01348496,7.77543911 L1.76397248,8.65133713 L5.17029766,7.65990373 L7.58173296,5.62568745 L1.31516117,0.986983154 L0.494068454,3.45026105 L1.04557815,6.09869195 Z" id="Vector" fill="#763E1A" mask="url(#mask-2)"></path>
                <path d="M12.4177607,7.65990762 L13.4437561,9.20828114 L11.9106871,12.1959108 L13.9379918,12.1702361 L16.965123,12.1702361 L15.8235917,8.65134044 L12.4177607,7.65990762 Z M1.76330361,8.65134044 L0.627697385,12.1702361 L3.64939776,12.1702361 L5.67620821,12.1959108 L4.14313966,9.20828114 L5.16913509,7.65990762 L1.76330361,8.65134044 Z M10.0058309,5.62519891 L10.9933147,2.95751349 L6.59358053,2.95751349 L7.58106433,5.62519891 L7.79929823,9.37467207 L7.88274044,10.5517521 L7.88915937,13.4628519 L9.69773592,13.4628519 L9.70415533,10.5517521 L9.78759705,9.37467207 L10.0058309,5.62519891 Z" id="Vector" fill="#F5841F" mask="url(#mask-2)"></path>
            </g>
        </g>
    </g>
</svg>