<?xml version="1.0" encoding="UTF-8"?>
<svg width="335px" height="154px" viewBox="0 0 335 154" version="1.1" xmlns="http://www.w3.org/2000/svg" xmlns:xlink="http://www.w3.org/1999/xlink">
    <title>编组 6</title>
    <g id="产品" stroke="none" stroke-width="1" fill="none" fill-rule="evenodd">
        <g id="弹框_H5_2" transform="translate(-20.000000, -172.000000)">
            <g id="Group-505" transform="translate(20.000000, 172.000000)">
                <g id="编组-6" transform="translate(0.000000, -31.529915)">
                    <rect id="矩形" fill="#062ef5" x="0" y="31.5299145" width="335" height="153.145299"></rect>
                    <path d="M126.478558,1.59022385 C124.016337,2.63977024 121.790018,4.17651099 119.932494,6.10871812 C118.062687,8.04021064 116.598268,10.3288862 115.62606,12.8390522 C114.653852,15.3492181 114.193649,18.0297732 114.272733,20.7217916 C114.219685,31.6002908 110.030758,42.0479927 102.561683,49.9306265 L98.4862465,53.944056 C96.8574636,55.3696949 95.1508014,56.7031191 93.3742006,57.9381355 C90.2666101,59.5943025 87.6709208,62.0740699 85.8694384,65.1077346 C84.5170216,67.376694 83.637239,69.8974731 83.2833106,72.5175529 C82.9293821,75.1376328 83.1086702,77.8025534 83.8103261,80.3510801 C84.511982,82.8996068 85.7214184,85.2787652 87.3654671,87.3446085 C89.0095157,89.4104518 91.0539965,91.1200382 93.3752185,92.3699345 C99.6429259,96.3497774 104.827138,101.830625 108.461834,108.319796 C112.108522,114.819137 114.095799,122.12348 114.246361,129.58119 C114.17447,132.271734 114.637504,134.949682 115.608409,137.458557 C116.579314,139.967433 118.038616,142.256924 119.901052,144.193249 C121.759499,146.124802 123.98639,147.660954 126.448957,148.710124 C128.911525,149.759295 131.559346,150.3 134.234554,150.3 C136.909763,150.3 139.557579,149.759295 142.020147,148.710124 C144.482714,147.660954 146.709609,146.124802 148.568056,144.193249 C150.434094,142.2595 151.895733,139.970455 152.866877,137.460963 C153.83802,134.95147 154.299029,132.272275 154.222747,129.58119 C154.181077,126.089207 153.223957,122.669818 151.447682,119.667036 C149.671407,116.664255 147.138623,114.183987 144.104144,112.475759 L134.819293,104.195398 C127.463612,96.3352367 123.355135,85.9650807 123.324293,75.1810141 C123.324293,60.5170358 131.864655,45.6137995 144.137617,37.8200929 C147.168158,36.109613 149.697592,33.6296532 151.472432,30.6287432 C153.247271,27.6278332 154.20517,24.2113883 154.250131,20.7217916 C154.322287,18.0311275 153.859276,15.3530256 152.888174,12.8440908 C151.917072,10.335156 150.457372,8.04574563 148.594427,6.10973647 C144.841538,2.20524744 139.668635,-2.28212325e-14 134.264474,-2.21594137e-14 L134.263461,-2.21592895e-14 C131.588425,-2.18316921e-14 128.940779,0.540677462 126.478558,1.59022385 Z M64.2134923,110.948056 C61.7876569,111.963143 59.5853455,113.448998 57.7329085,115.320386 C54.4604948,118.626851 52.4254456,122.965815 51.9715718,127.604217 C51.5176981,132.242618 52.6728299,136.896097 55.2418065,140.778469 C56.8731887,143.260548 59.0357141,145.346011 61.5717938,146.882869 C64.1078735,148.419726 66.9536118,149.369261 69.9016116,149.662276 C72.8496113,149.955291 75.8255999,149.5844 78.6127037,148.576637 C81.3998075,147.568874 83.9278042,145.949629 86.0124591,143.836903 C88.8091367,141.008438 90.7121514,137.414499 91.4831152,133.505298 C92.2540791,129.596097 91.8587064,125.545461 90.3465345,121.860792 C88.8345871,118.180898 86.2704081,115.033114 82.9776857,112.814799 C79.6947872,110.60232 75.830446,109.420034 71.8762375,109.418346 L71.8691301,109.418346 L71.8691301,109.405109 C69.2409491,109.408628 66.6393277,109.93297 64.2134923,110.948056 Z M44.6076054,55.3357261 C40.7250238,54.5560999 36.6990445,54.9559726 33.0439725,56.4842609 C29.3865129,58.0146539 26.2638521,60.6002362 24.0715301,63.9134834 C21.8749667,67.2337031 20.7022355,71.1302278 20.7,75.1158528 C20.7069789,80.4583314 22.8163131,85.5817341 26.5687215,89.3705534 C29.8306549,92.6677239 34.1344645,94.7220487 38.7411089,95.1807533 C43.3477533,95.639458 47.9697772,94.4739167 51.8134897,91.8842878 C55.1055204,89.666351 57.6679066,86.517814 59.1762491,82.8372816 C60.6882943,79.1525166 61.0834977,75.1018055 60.3123524,71.1925994 C59.5412071,67.2833932 57.638004,63.6895138 54.8411558,60.8611613 L54.8411558,60.8611613 C52.0530893,58.0390846 48.490187,56.1153523 44.6076054,55.3357261 Z M151.27825,60.8672692 C148.003873,64.1723905 145.966984,68.5110934 145.51197,73.1498204 C145.056956,77.7885473 146.211732,82.4426928 148.781056,86.3253564 C150.419236,88.7980308 152.584378,90.8743829 155.119912,92.4042579 C157.655445,93.934133 160.497997,94.8792934 163.44201,95.1713948 C166.386022,95.4634963 169.357911,95.0952352 172.14277,94.0932431 C174.927628,93.091251 177.455849,91.4805706 179.544606,89.3776785 C182.341454,86.549326 184.244658,82.9554421 185.015804,79.0462359 C185.786949,75.1370298 185.391745,71.0863232 183.8797,67.4015582 C182.370586,63.7198563 179.808492,60.5695544 176.516936,58.3484396 C173.230042,56.1340107 169.360909,54.9516679 165.402299,54.951992 L165.402299,54.951992 C160.099586,54.9681596 155.019912,57.0955737 151.27825,60.8672692 Z M73.8314961,0.597268538 C69.2251892,0.139897916 64.6038983,1.30594388 60.7605836,3.89532636 C57.4695781,6.11395118 54.9074381,9.26182672 53.3978152,12.9413207 C51.88577,16.6260857 51.4905666,20.6767878 52.2617119,24.5859939 C53.0328572,28.4952001 54.9360603,32.0890818 57.7329085,34.9174342 C60.5202704,37.7382496 64.0818631,39.661292 67.9629998,40.4410633 C71.8441365,41.2208347 75.8687372,40.8219528 79.5230024,39.2953451 C83.180497,37.7540853 86.303117,35.1630009 88.4991292,31.8471412 C90.6951414,28.5312814 91.8667483,24.6383206 91.8669659,20.6566326 C91.8647411,15.3145993 89.7575915,10.1902902 86.0053518,6.40193654 L86.0053518,6.40193654 C82.7419309,3.1069104 78.437803,1.05463916 73.8314961,0.597268538 Z" id="Vector" fill="#FFFFFF" opacity="0.05"></path>
                </g>
            </g>
        </g>
    </g>
</svg>