<?xml version="1.0" encoding="UTF-8"?>
<svg width="24px" height="24px" viewBox="0 0 24 24" version="1.1" xmlns="http://www.w3.org/2000/svg" xmlns:xlink="http://www.w3.org/1999/xlink">
    <title>icon/24/7</title>
    <g id="icon/24/7" stroke="none" stroke-width="1" fill="none" fill-rule="evenodd">
        <g id="编组" transform="translate(3.000000, 3.000000)" fill-rule="nonzero">
            <line x1="0.0502012213" y1="18" x2="0.0502012213" y2="0" id="路径" fill="#DBD9D9"></line>
            <path d="M8.03646605,8.03119774 C8.67280105,8.18708542 9.33733612,8.18708542 9.97367112,8.03119774 C10.3361083,6.55667781 11.4868827,5.40539928 12.9607569,5.04280331 C13.3621856,3.40026448 12.7077614,1.68038007 11.3161725,0.720690913 C9.92458361,-0.238998243 8.0851045,-0.238998243 6.69351563,0.720690913 C5.30192675,1.68038007 4.64750251,3.40026448 5.04893118,5.04280331 C6.52313336,5.4049785 7.67422785,6.55640418 8.03646605,8.03119774 L8.03646605,8.03119774 Z" id="路径" fill="#7ABDF7"></path>
            <path d="M9.97367112,9.96835301 C9.33733612,9.81246533 8.67280105,9.81246533 8.03646605,9.96835301 C7.67402886,11.442873 6.52325447,12.5941515 5.04938023,12.9567474 C4.64795156,14.5992863 5.3023758,16.3191707 6.69396467,17.2788598 C8.08555355,18.238549 9.92503266,18.238549 11.3166215,17.2788598 C12.7082104,16.3191707 13.3626346,14.5992863 12.961206,12.9567474 C11.4870038,12.5945723 10.3359093,11.4431466 9.97367112,9.96835301 L9.97367112,9.96835301 Z" id="路径" fill="#0D74F5"></path>
            <path d="M13.9293595,4.92554971 C13.6031276,4.92550579 13.2780748,4.96472228 12.961206,5.04235406 C12.5991559,6.51683986 11.4484093,7.66809054 9.97456922,8.03029925 C9.8187498,8.66691303 9.8187498,9.33173923 9.97456922,9.96835301 C11.4484249,10.3308205 12.5991188,11.4821916 12.961206,12.9567474 C14.4878707,13.3298075 16.0928573,12.7907654 17.0852564,11.5716663 C18.0776555,10.3525672 18.2803449,8.67099445 17.6060715,7.25082593 C16.9317981,5.83065742 15.5009054,4.92536315 13.9293595,4.9246512 L13.9293595,4.92554971 Z" id="路径" fill="#4494F7"></path>
            <path d="M8.03646605,9.96835301 C8.19228547,9.33173923 8.19228547,8.66691303 8.03646605,8.03029925 C6.56255587,7.66805349 5.41168896,6.51685547 5.04938023,5.04235406 C3.40756067,4.64074951 1.6884294,5.29546045 0.729160486,6.68765898 C-0.230108427,8.0798575 -0.230108427,9.9201425 0.729160486,11.312341 C1.6884294,12.7045396 3.40756067,13.3592505 5.04938023,12.9576459 C5.41134232,11.4826762 6.5622511,10.330917 8.03646605,9.96835301 L8.03646605,9.96835301 Z" id="路径" fill="#005CF4"></path>
            <path d="M9.97367112,8.03119774 C11.4475454,7.66860177 12.5983197,6.51732324 12.9607569,5.04280331 C11.4868827,5.40539928 10.3361083,6.55667781 9.97367112,8.03119774 L9.97367112,8.03119774 Z" id="路径" fill="#186EF9"></path>
            <path d="M9.97367112,9.96835301 C10.3358338,11.4430277 11.486728,12.5944261 12.9607569,12.9567474 C12.5983197,11.4822275 11.4475454,10.330949 9.97367112,9.96835301 L9.97367112,9.96835301 Z" id="路径" fill="#0246F2"></path>
            <path d="M8.03646605,8.03119774 C7.67402886,6.5566778 6.52325447,5.40539927 5.04938023,5.04280331 C5.41181742,6.51732325 6.56259181,7.66860178 8.03646605,8.03119774 L8.03646605,8.03119774 Z" id="路径" fill="#0046F8"></path>
            <path d="M8.03646605,9.96835301 C6.56259181,10.330949 5.41181742,11.4822275 5.04938023,12.9567474 C6.52325447,12.5941515 7.67402886,11.442873 8.03646605,9.96835301 L8.03646605,9.96835301 Z" id="路径" fill="#0729F1"></path>
            <path d="M8.03646605,8.03119774 C8.67280105,8.18708542 9.33733612,8.18708542 9.97367112,8.03119774 C10.3361083,6.55667781 11.4868827,5.40539928 12.9607569,5.04280331 C13.3621856,3.40026448 12.7077614,1.68038007 11.3161725,0.720690913 C9.92458361,-0.238998243 8.0851045,-0.238998243 6.69351563,0.720690913 C5.30192675,1.68038007 4.64750251,3.40026448 5.04893118,5.04280331 C6.52313336,5.4049785 7.67422785,6.55640418 8.03646605,8.03119774 L8.03646605,8.03119774 Z" id="路径" fill="#7ABDF7"></path>
            <path d="M9.97367112,9.96835301 C9.33733612,9.81246533 8.67280105,9.81246533 8.03646605,9.96835301 C7.67402886,11.442873 6.52325447,12.5941515 5.04938023,12.9567474 C4.64795156,14.5992863 5.3023758,16.3191707 6.69396467,17.2788598 C8.08555355,18.238549 9.92503266,18.238549 11.3166215,17.2788598 C12.7082104,16.3191707 13.3626346,14.5992863 12.961206,12.9567474 C11.4870038,12.5945723 10.3359093,11.4431466 9.97367112,9.96835301 L9.97367112,9.96835301 Z" id="路径" fill="#0D74F5"></path>
            <path d="M13.9293595,4.92554971 C13.6031276,4.92550579 13.2780748,4.96472228 12.961206,5.04235406 C12.5991559,6.51683986 11.4484093,7.66809054 9.97456922,8.03029925 C9.8187498,8.66691303 9.8187498,9.33173923 9.97456922,9.96835301 C11.4484249,10.3308205 12.5991188,11.4821916 12.961206,12.9567474 C14.4878707,13.3298075 16.0928573,12.7907654 17.0852564,11.5716663 C18.0776555,10.3525672 18.2803449,8.67099445 17.6060715,7.25082593 C16.9317981,5.83065742 15.5009054,4.92536315 13.9293595,4.9246512 L13.9293595,4.92554971 Z" id="路径" fill="#4494F7"></path>
            <path d="M8.03646605,9.96835301 C8.19228547,9.33173923 8.19228547,8.66691303 8.03646605,8.03029925 C6.56255587,7.66805349 5.41168896,6.51685547 5.04938023,5.04235406 C3.40756067,4.64074951 1.6884294,5.29546045 0.729160486,6.68765898 C-0.230108427,8.0798575 -0.230108427,9.9201425 0.729160486,11.312341 C1.6884294,12.7045396 3.40756067,13.3592505 5.04938023,12.9576459 C5.41134232,11.4826762 6.5622511,10.330917 8.03646605,9.96835301 L8.03646605,9.96835301 Z" id="路径" fill="#005CF4"></path>
            <path d="M9.97367112,8.03119774 C11.4475454,7.66860177 12.5983197,6.51732324 12.9607569,5.04280331 C11.4868827,5.40539928 10.3361083,6.55667781 9.97367112,8.03119774 L9.97367112,8.03119774 Z" id="路径" fill="#186EF9"></path>
            <path d="M9.97367112,9.96835301 C10.3358338,11.4430277 11.486728,12.5944261 12.9607569,12.9567474 C12.5983197,11.4822275 11.4475454,10.330949 9.97367112,9.96835301 L9.97367112,9.96835301 Z" id="路径" fill="#0246F2"></path>
            <path d="M8.03646605,8.03119774 C7.67402886,6.5566778 6.52325447,5.40539927 5.04938023,5.04280331 C5.41181742,6.51732325 6.56259181,7.66860178 8.03646605,8.03119774 L8.03646605,8.03119774 Z" id="路径" fill="#0046F8"></path>
            <path d="M8.03646605,9.96835301 C6.56259181,10.330949 5.41181742,11.4822275 5.04938023,12.9567474 C6.52325447,12.5941515 7.67402886,11.442873 8.03646605,9.96835301 L8.03646605,9.96835301 Z" id="路径" fill="#0729F1"></path>
        </g>
    </g>
</svg>