<svg width="512" height="512" viewBox="0 0 512 512" fill="none" xmlns="http://www.w3.org/2000/svg">
<g clip-path="url(#clip0)">
<path d="M256.01 231.849C320.033 231.849 371.934 179.948 371.934 115.925C371.934 51.9012 320.033 0 256.01 0C191.986 0 140.085 51.9012 140.085 115.925C140.085 179.948 191.986 231.849 256.01 231.849Z" fill="#88BDF3"/>
<path d="M256.01 512.016C320.033 512.016 371.934 460.115 371.934 396.092C371.934 332.068 320.033 280.167 256.01 280.167C191.986 280.167 140.085 332.068 140.085 396.092C140.085 460.115 191.986 512.016 256.01 512.016Z" fill="#3075EE"/>
<path d="M396.091 371.932C460.114 371.932 512.015 320.031 512.015 256.007C512.015 191.984 460.114 140.083 396.091 140.083C332.067 140.083 280.166 191.984 280.166 256.007C280.166 320.031 332.067 371.932 396.091 371.932Z" fill="#5795F1"/>
<path d="M115.925 371.932C179.948 371.932 231.849 320.031 231.849 256.007C231.849 191.984 179.948 140.083 115.925 140.083C51.9014 140.083 0.000244141 191.984 0.000244141 256.007C0.000244141 320.031 51.9014 371.932 115.925 371.932Z" fill="#205FEC"/>
<path fill-rule="evenodd" clip-rule="evenodd" d="M143.334 143.333C185.35 153.514 218.423 186.587 228.604 228.603C187.986 218.748 155.721 187.5 144.427 147.459L143.334 143.333Z" fill="#134BEF"/>
<path fill-rule="evenodd" clip-rule="evenodd" d="M228.604 283.417C218.422 325.433 185.35 358.505 143.334 368.686C153.188 328.069 184.436 295.803 224.477 284.51L228.604 283.417Z" fill="#0932E8"/>
<path fill-rule="evenodd" clip-rule="evenodd" d="M283.416 283.417C325.432 293.598 358.504 326.671 368.685 368.687C328.068 358.833 295.802 327.585 284.509 287.544L283.416 283.417Z" fill="#164BEA"/>
<path fill-rule="evenodd" clip-rule="evenodd" d="M368.685 143.333C358.504 185.348 325.432 218.42 283.416 228.602C293.27 187.984 324.517 155.719 364.558 144.426L368.685 143.333Z" fill="#3170F1"/>
</g>
<defs>
<clipPath id="clip0">
<rect width="512" height="512" fill="white"/>
</clipPath>
</defs>
</svg>
