<?xml version="1.0" encoding="UTF-8"?>
<svg width="512px" height="512px" viewBox="0 0 512 512" version="1.1" xmlns="http://www.w3.org/2000/svg" xmlns:xlink="http://www.w3.org/1999/xlink">
    <title>ADA</title>
    <g id="ADA" stroke="none" stroke-width="1" fill="none" fill-rule="evenodd">
        <g id="BCH" transform="translate(0.000000, 2.000000)"></g>
        <circle id="椭圆形" fill="#216CCF" fill-rule="nonzero" cx="256" cy="256" r="256"></circle>
        <g id="ADA-2" transform="translate(106.000000, 118.000000)" fill="#FFFFFF" fill-rule="nonzero">
            <g id="ADA" transform="translate(0.000000, 0.000000)">
                <path d="M153.45,97.5613078 C153.45,108.817684 162.583391,117.942779 173.85,117.942779 C185.116609,117.942779 194.25,108.817684 194.25,97.5613078 C194.25,86.304932 185.116609,77.1798364 173.85,77.1798364 C162.583391,77.1798364 153.45,86.304932 153.45,97.5613078 L153.45,97.5613078 Z" id="路径"></path>
                <path d="M136.8,57.6975476 C136.8,65.6432246 143.2471,72.0844686 151.2,72.0844686 C159.1529,72.0844686 165.6,65.6432246 165.6,57.6975476 C165.6,52.5575957 162.855376,47.8080841 158.4,45.2381081 C153.944625,42.668132 148.455375,42.668132 144,45.2381081 C139.544624,47.8080841 136.8,52.5575957 136.8,57.6975476 L136.8,57.6975476 Z" id="路径"></path>
                <path d="M136.8,218.80109 C136.8,226.746767 143.2471,233.188011 151.2,233.188011 C159.1529,233.188011 165.6,226.746767 165.6,218.80109 C165.6,213.661138 162.855376,208.911626 158.4,206.34165 C153.944625,203.771674 148.455375,203.771674 144,206.34165 C139.544624,208.911626 136.8,213.661138 136.8,218.80109 L136.8,218.80109 Z" id="路径"></path>
                <path d="M206.4,97.5613078 C206.4,105.506985 212.8471,111.948229 220.8,111.948229 C228.7529,111.948229 235.2,105.506985 235.2,97.5613078 C235.2,89.6156307 228.7529,83.1743868 220.8,83.1743868 C212.8471,83.1743868 206.4,89.6156307 206.4,97.5613078 Z" id="路径"></path>
                <path d="M65.85,178.188011 C65.85,183.327963 68.5946243,188.077474 73.0499999,190.64745 C77.5053754,193.217426 82.9946246,193.217426 87.4500001,190.64745 C91.9053757,188.077474 94.65,183.327963 94.65,178.188011 C94.65,170.242334 88.2029004,163.80109 80.25,163.80109 C72.2970996,163.80109 65.85,170.242334 65.85,178.188011 L65.85,178.188011 Z" id="路径"></path>
                <path d="M64.8,97.5613078 C64.8,105.506985 71.2470996,111.948229 79.2,111.948229 C87.1529004,111.948229 93.6,105.506985 93.6,97.5613078 C93.6,89.6156307 87.1529004,83.1743868 79.2,83.1743868 C71.2470996,83.1743868 64.8,89.6156307 64.8,97.5613078 L64.8,97.5613078 Z" id="路径"></path>
                <path d="M206.4,177.288828 C206.4,185.234505 212.8471,191.675749 220.8,191.675749 C228.7529,191.675749 235.2,185.234505 235.2,177.288828 C235.2,169.343151 228.7529,162.901907 220.8,162.901907 C212.8471,162.901907 206.4,169.343151 206.4,177.288828 Z" id="路径"></path>
                <path d="M244.35,137.724795 C244.35,141.847465 246.551417,145.656969 250.125,147.718304 C253.698582,149.779639 258.101418,149.779639 261.675,147.718304 C265.248583,145.656969 267.45,141.847465 267.45,137.724795 C267.45,131.3517 262.278889,126.185286 255.9,126.185286 C249.521111,126.185286 244.35,131.3517 244.35,137.724795 Z" id="路径"></path>
                <path d="M32.55,137.724795 C32.55,144.097891 37.7211111,149.264305 44.1,149.264305 C50.4788889,149.264305 55.65,144.097891 55.65,137.724795 C55.65,131.3517 50.4788889,126.185286 44.1,126.185286 C37.7211111,126.185286 32.55,131.3517 32.55,137.724795 Z" id="路径"></path>
                <path d="M192.6,46.9073569 C192.6,53.280452 197.771111,58.4468664 204.15,58.4468664 C210.528889,58.4468664 215.7,53.280452 215.7,46.9073569 C215.7,40.5342618 210.528889,35.3678474 204.15,35.3678474 C197.771111,35.3678474 192.6,40.5342618 192.6,46.9073569 L192.6,46.9073569 Z" id="路径"></path>
                <path d="M84.3,228.692098 C84.3,235.065193 89.4711111,240.231607 95.85,240.231607 C102.228889,240.231607 107.4,235.065193 107.4,228.692098 C107.4,222.319003 102.228889,217.152588 95.85,217.152588 C89.4711111,217.152588 84.3,222.319003 84.3,228.692098 Z" id="路径"></path>
                <path d="M84.9,46.4577656 C84.9,52.8308607 90.0711111,57.9972751 96.45,57.9972751 C102.828889,57.9972751 108,52.8308607 108,46.4577656 C108,40.0846705 102.828889,34.9182561 96.45,34.9182561 C90.0711111,34.9182561 84.9,40.0846705 84.9,46.4577656 L84.9,46.4577656 Z" id="路径"></path>
                <path d="M192,229.141689 C192,235.514784 197.171111,240.681199 203.55,240.681199 C209.928889,240.681199 215.1,235.514784 215.1,229.141689 C215.1,222.768594 209.928889,217.60218 203.55,217.60218 C197.171111,217.60218 192,222.768594 192,229.141689 L192,229.141689 Z" id="路径"></path>
                <path d="M176.85,138.474114 C176.85,149.73049 185.983391,158.855586 197.25,158.855586 C208.516609,158.855586 217.65,149.73049 217.65,138.474114 C217.65,127.217738 208.516609,118.092643 197.25,118.092643 C185.983391,118.092643 176.85,127.217738 176.85,138.474114 L176.85,138.474114 Z" id="路径"></path>
                <path d="M153.45,179.237057 C153.45,190.493433 162.583391,199.618528 173.85,199.618528 C185.116609,199.618528 194.25,190.493433 194.25,179.237057 C194.25,167.980681 185.116609,158.855586 173.85,158.855586 C162.583391,158.855586 153.45,167.980681 153.45,179.237057 L153.45,179.237057 Z" id="路径"></path>
                <path d="M105.75,97.5613078 C105.75,108.817684 114.883391,117.942779 126.15,117.942779 C137.416609,117.942779 146.55,108.817684 146.55,97.5613078 C146.55,86.304932 137.416609,77.1798364 126.15,77.1798364 C114.883391,77.1798364 105.75,86.304932 105.75,97.5613078 L105.75,97.5613078 Z" id="路径"></path>
                <path d="M82.35,138.474114 C82.35,149.73049 91.4833911,158.855586 102.75,158.855586 C114.016609,158.855586 123.15,149.73049 123.15,138.474114 C123.15,127.217738 114.016609,118.092643 102.75,118.092643 C91.4833911,118.092643 82.35,127.217738 82.35,138.474114 Z" id="路径"></path>
                <path d="M105.75,179.237057 C105.75,190.493433 114.883391,199.618528 126.15,199.618528 C137.416609,199.618528 146.55,190.493433 146.55,179.237057 C146.55,167.980681 137.416609,158.855586 126.15,158.855586 C114.883391,158.855586 105.75,167.980681 105.75,179.237057 L105.75,179.237057 Z" id="路径"></path>
                <path d="M140.7,9.14168936 C140.7,12.4077005 142.44398,15.4256193 145.275,17.0586249 C148.10602,18.6916305 151.59398,18.6916305 154.425,17.0586249 C157.25602,15.4256193 159,12.4077005 159,9.14168936 C159,4.09287374 154.903405,0 149.85,0 C144.796595,0 140.7,4.09287374 140.7,9.14168936 L140.7,9.14168936 Z" id="路径"></path>
                <path d="M140.7,265.85831 C140.7,269.124321 142.44398,272.14224 145.275,273.775246 C148.10602,275.408251 151.59398,275.408251 154.425,273.775246 C157.25602,272.14224 159,269.124321 159,265.85831 C159,260.809495 154.903405,256.716621 149.85,256.716621 C144.796595,256.716621 140.7,260.809495 140.7,265.85831 L140.7,265.85831 Z" id="路径"></path>
                <path d="M29.1,73.8828337 C29.1,77.1488448 30.8439801,80.1667635 33.6749999,81.7997691 C36.5060198,83.4327746 39.9939802,83.4327746 42.8250001,81.7997691 C45.6560199,80.1667635 47.4,77.1488448 47.4,73.8828337 C47.4,70.6168226 45.6560199,67.5989039 42.8250001,65.9658983 C39.9939802,64.3328927 36.5060198,64.3328927 33.6749999,65.9658983 C30.8439801,67.5989039 29.1,70.6168226 29.1,73.8828337 L29.1,73.8828337 Z" id="路径"></path>
                <path d="M252.3,200.967302 C252.3,206.016118 256.396595,210.108992 261.45,210.108992 C266.503405,210.108992 270.6,206.016118 270.6,200.967302 C270.6,197.701291 268.85602,194.683372 266.025,193.050366 C263.19398,191.417361 259.70602,191.417361 256.875,193.050366 C254.04398,194.683372 252.3,197.701291 252.3,200.967302 L252.3,200.967302 Z" id="路径"></path>
                <path d="M28.95,200.967302 C28.95,206.016118 33.0465945,210.108992 38.1,210.108992 C43.1534055,210.108992 47.25,206.016118 47.25,200.967302 C47.25,195.918487 43.1534055,191.825613 38.1,191.825613 C33.0465945,191.825613 28.95,195.918487 28.95,200.967302 L28.95,200.967302 Z" id="路径"></path>
                <path d="M252.3,74.0326974 C252.3,79.0815131 256.396595,83.1743868 261.45,83.1743868 C266.503405,83.1743868 270.6,79.0815131 270.6,74.0326974 C270.6,70.7666863 268.85602,67.7487674 266.025,66.1157618 C263.19398,64.4827561 259.70602,64.4827561 256.875,66.1157618 C254.04398,67.7487674 252.3,70.7666863 252.3,74.0326974 L252.3,74.0326974 Z" id="路径"></path>
                <path d="M70.2,14.8365122 C70.2,18.8921182 73.4907071,22.1798365 77.55,22.1798365 C81.6092929,22.1798365 84.9,18.8921182 84.9,14.8365122 C84.9,10.7809062 81.6092929,7.493188 77.55,7.493188 C73.4907071,7.493188 70.2,10.7809062 70.2,14.8365122 L70.2,14.8365122 Z" id="路径"></path>
                <path d="M215.1,260.313351 C215.1,264.368957 218.390707,267.656675 222.45,267.656675 C226.509293,267.656675 229.8,264.368957 229.8,260.313351 C229.8,256.257745 226.509293,252.970027 222.45,252.970027 C218.390707,252.970027 215.1,256.257745 215.1,260.313351 Z" id="路径"></path>
                <path d="M214.8,14.6866485 C214.8,18.7422545 218.090707,22.0299727 222.15,22.0299727 C226.209293,22.0299727 229.5,18.7422545 229.5,14.6866485 C229.5,10.6310425 226.209293,7.34332424 222.15,7.34332424 C218.090707,7.34332424 214.8,10.6310425 214.8,14.6866485 Z" id="路径"></path>
                <path d="M70.5,260.463215 C70.5,264.518821 73.7907071,267.806539 77.85,267.806539 C81.9092929,267.806539 85.2,264.518821 85.2,260.463215 C85.2,257.839698 83.799098,255.415468 81.5250001,254.103709 C79.2509021,252.791951 76.4490979,252.791951 74.1749999,254.103709 C71.900902,255.415468 70.5,257.839698 70.5,260.463215 L70.5,260.463215 Z" id="路径"></path>
                <path d="M285.3,137.275204 C285.3,141.33081 288.590707,144.618528 292.65,144.618528 C296.709293,144.618528 300,141.33081 300,137.275204 C300,133.219598 296.709293,129.93188 292.65,129.93188 C288.590707,129.93188 285.3,133.219598 285.3,137.275204 L285.3,137.275204 Z" id="路径"></path>
                <path d="M0,138.024523 C0,142.080129 3.29070709,145.367847 7.35,145.367847 C11.4092929,145.367847 14.7,142.080129 14.7,138.024523 C14.7,133.968917 11.4092929,130.681199 7.35,130.681199 C3.29070709,130.681199 0,133.968917 0,138.024523 Z" id="路径"></path>
            </g>
        </g>
    </g>
</svg>