<?xml version="1.0" encoding="UTF-8"?>
<svg width="512px" height="512px" viewBox="0 0 512 512" version="1.1" xmlns="http://www.w3.org/2000/svg" xmlns:xlink="http://www.w3.org/1999/xlink">
    <title>BCH</title>
    <g id="BCH" stroke="none" stroke-width="1" fill="none" fill-rule="evenodd">
        <g id="BCH" transform="translate(0.000000, 2.000000)"></g>
        <g id="编组" transform="translate(0.000000, 2.000000)" fill="#FDA806" fill-rule="nonzero">
            <path d="M268.288378,262.531422 L231.478703,279.704838 L254.750394,329.482857 C258.685854,339.962439 267.002794,334.657151 267.002794,334.657151 C306.908365,317.103849 310.699525,311.195985 310.699525,311.195985 C331.203275,292.568526 319.882267,272.696617 319.882267,272.696617 C307.144493,243.314487 268.288378,262.531422 268.288378,262.531422 L268.288378,262.531422 Z M276.7365,191.113065 C264.759582,165.503585 231.754185,182.572205 231.754185,182.572205 L194,199.509831 L217.612764,249.903525 L256.219632,230.634192 C289.041374,212.032932 276.7365,191.113065 276.7365,191.113065 Z" id="形状"></path>
            <path d="M255.006543,0 C114.169339,0 0,114.148838 0,254.960751 C0,395.772664 114.169339,510 255.006543,510 C395.843746,510 510,395.785747 510,254.960751 C510,114.135755 395.856831,0 255.006543,0 Z M364.988582,368.023703 L327.04118,385.751116 L311.613598,352.742804 L287.680564,363.928736 L303.095061,396.923965 L265.958948,414.271972 L250.544452,381.26366 L192.785888,408.240726 L179.294933,379.366631 L192.498012,373.191473 C192.498012,373.191473 207.218987,369.057257 199.498653,354.208096 L143.362668,233.949515 C143.362668,233.949515 138.691212,217.896722 123.23746,226.361398 L110.688647,232.458058 L97.1976908,203.583962 L154.969339,176.606895 L139.554843,143.677082 L176.67787,126.329075 L192.105452,159.376635 L216.025401,148.203786 L200.610904,115.195475 L238.558307,97.4680622 L255.569211,133.77328 C255.569211,133.77328 305.489673,115.823457 326.543938,156.576882 C326.543938,156.576882 345.76626,189.140372 307.373958,223.156072 C307.373958,223.156072 364.177293,203.296137 382.889288,257.054025 C382.889288,257.054025 397.466325,297.611205 348.069275,331.7839 L364.988582,368.023703 Z" id="形状"></path>
        </g>
    </g>
</svg>