<?xml version="1.0" encoding="UTF-8"?>
<svg width="512px" height="512px" viewBox="0 0 512 512" version="1.1" xmlns="http://www.w3.org/2000/svg" xmlns:xlink="http://www.w3.org/1999/xlink">
    <title>bnb</title>
    <g id="bnb" stroke="none" stroke-width="1" fill="none" fill-rule="evenodd">
        <g id="oLTC" fill-rule="nonzero">
            <g id="编组">
                <circle id="椭圆形" fill="#F3BA2F" cx="256" cy="256" r="256"></circle>
                <g id="BNB" transform="translate(76.000000, 76.000000)" fill="#FFFFFF">
                    <path d="M110.0862,151.2756 L179.9982,81.3654 L249.9462,151.3116 L290.6262,110.6316 L179.9982,0 L69.408,110.5956 L110.0862,151.2756 M0.00108,179.99442 L40.68234,139.31316 L81.3609,179.9919 L40.68,220.6728 L0.00108,179.99442 Z M110.0862,208.7244 L179.9982,278.6346 L249.9444,208.6902 L290.646,249.3486 L290.6262,249.3702 L179.9982,360 L69.4044,249.408 L69.3468,249.3504 L110.0862,208.7244 M278.64234,180.01674 L319.3236,139.33566 L360.00216,180.01422 L319.32108,220.69548 L278.64234,180.01674 Z" id="形状"></path>
                    <polyline id="路径" points="221.2596 179.9784 221.2776 179.9784 179.9982 138.699 149.4918 169.2054 149.49 169.2054 145.9854 172.7118 138.7566 179.9424 138.699 179.9982 138.7566 180.0576 179.9982 221.301 221.2776 180.0216 221.2974 179.9982 221.2596 179.9784"></polyline>
                </g>
            </g>
        </g>
    </g>
</svg>