<?xml version="1.0" encoding="UTF-8"?>
<svg width="512px" height="512px" viewBox="0 0 512 512" version="1.1" xmlns="http://www.w3.org/2000/svg" xmlns:xlink="http://www.w3.org/1999/xlink">
    <title>BSV</title>
    <g id="BSV" stroke="none" stroke-width="1" fill="none" fill-rule="evenodd">
        <g id="oLTC" fill="#E8B320" fill-rule="nonzero">
            <g id="at_HLTC">
                <g id="编组">
                    <circle id="椭圆形" cx="256" cy="256" r="256"></circle>
                </g>
            </g>
        </g>
        <path d="M352.327234,208.903477 C352.327234,173.319621 325.822107,144.48092 293.15587,144.48092 L283.726214,144.48092 L283.726214,111.153695 C283.720176,108.309896 281.419903,106.006047 278.58052,106 L261.414485,106 C258.578665,106.01355 256.283551,108.313459 256.271535,111.153695 L256.271535,144.48092 L228.827834,144.48092 L228.827834,111.153695 C228.821809,108.312035 226.524869,106.009068 223.687629,106 L206.53806,106 C203.701893,106.010576 201.406617,108.313104 201.400599,111.153695 L201.400599,144.48092 L151.145694,144.48092 C149.781476,144.479461 148.472634,145.021215 147.507471,145.986847 C146.542308,146.952479 146,148.262777 146,149.629117 L146,166.981263 C146,169.636447 147.975946,171.934308 150.624264,172.173439 C169.947374,173.94631 180.304626,186.936369 180.304626,202.889459 L180.304626,309.401897 C180.304626,323.75528 172.908549,335.156627 156.744209,336.709606 C154.453576,336.898017 152.5647,338.583491 152.114457,340.840808 L148.837679,358.352375 C148.558274,359.839202 148.954791,361.373403 149.919388,362.537715 C150.883985,363.702026 152.316361,364.375379 153.826944,364.374639 L201.3759,364.374639 L201.3759,400.849054 C201.3759,403.688396 203.692148,406 206.513361,406 L223.665674,406 C226.50033,405.990939 228.795602,403.690871 228.803135,400.851803 L228.803135,364.374639 L256.241347,364.374639 L256.241347,400.849054 C256.241347,403.688396 258.56034,406 261.387041,406 L278.53661,406 C281.372164,405.990956 283.669016,403.69176 283.67956,400.851803 L283.67956,364.374639 L306.828322,364.374639 C339.51377,364.374639 365.999843,335.920748 365.999843,300.815154 C366.04634,278.90027 355.743974,259.59934 340.046177,248.167758 C347.735902,237.29415 352.327234,223.688396 352.327234,208.900728 L352.327234,208.903477 Z M228.331103,180.213203 L273.017682,180.213203 C281.001054,180.213203 288.655103,183.401622 294.300272,189.077557 C299.94667,194.762742 303.114257,202.456824 303.109705,210.475697 C303.112444,218.501718 299.942697,226.197902 294.300272,231.873838 C288.664957,237.544444 281.005973,240.732695 273.017682,240.732695 L228.331103,240.732695 L228.331103,180.213203 Z M287.609498,328.694581 L228.331103,328.694581 L228.331103,268.169591 L287.609498,268.169591 C298.474725,268.025639 308.572587,273.762787 314.02406,283.17715 C319.494781,292.608119 319.494781,304.253304 314.02406,313.684273 C308.572103,323.099501 298.472957,328.836783 287.606753,328.691832 L287.609498,328.694581 Z" id="形状" fill="#FFFFFF" fill-rule="nonzero"></path>
    </g>
</svg>