<?xml version="1.0" encoding="UTF-8"?>
<svg width="512px" height="512px" viewBox="0 0 512 512" version="1.1" xmlns="http://www.w3.org/2000/svg" xmlns:xlink="http://www.w3.org/1999/xlink">
    <title>BTC</title>
    <g id="BTC" stroke="none" stroke-width="1" fill="none" fill-rule="evenodd">
        <g fill-rule="nonzero" id="OKB">
            <g>
                <path d="M255.900039,0 C397.244826,0 511.800078,114.555252 511.800078,255.900039 C511.800078,397.244826 397.244826,511.800078 255.900039,511.800078 C114.555252,511.800078 0,397.244826 0,255.900039 C0,114.555252 114.605232,0 255.900039,0 Z" id="路径" fill="#FDA806"></path>
                <path d="M358.609427,191.384921 C361.024307,215.885692 352.236507,233.250734 332.242456,243.481637 C347.940566,247.250435 359.682222,254.183242 367.463856,264.280454 C375.245489,274.376076 378.265973,288.781225 376.520549,307.492323 C375.58101,317.050397 373.400916,325.463348 369.979868,332.732768 C366.558821,340.002188 362.230756,345.992795 356.997259,350.703793 C351.763763,355.415189 345.257189,359.353886 337.47397,362.516303 C329.692336,365.680709 321.539488,368.001989 313.020184,369.481736 C304.499293,370.961483 294.737846,371.971324 283.735447,372.510462 L283.735447,424 L252.739394,424 L252.739394,373.317778 C242.005887,373.317778 233.820518,373.250933 228.184872,373.115253 L228.184872,424 L197.192388,424 L197.192388,372.509269 C194.777508,372.509269 191.154593,372.47505 186.323642,372.407807 C181.492295,372.340962 177.802752,372.306346 175.254615,372.306346 L135,372.306346 L141.239664,335.354455 L163.58157,335.354455 C170.290011,335.354455 174.181819,331.92227 175.254615,325.056308 L175.254615,185.731326 C173.510777,176.576711 167.540006,172.000995 157.341906,172.000995 L135,172.000995 L135,138.884747 L177.669495,139.087273 C186.257014,139.087273 192.76557,139.020427 197.192785,138.884747 L197.192785,88 L228.188838,88 L228.188838,137.875305 C239.191237,137.605536 247.376607,137.471846 252.74336,137.471846 L252.74336,88 L283.739413,88 L283.739413,138.884747 C294.339663,139.827345 303.731481,141.341708 311.91685,143.427837 C320.10222,145.513965 327.683571,148.542691 334.660906,152.513617 C341.63824,156.484543 347.172754,161.735077 351.26643,168.262834 C355.35614,174.792579 357.805128,182.500075 358.609427,191.384921 Z M315.335915,301.431688 C315.335915,296.584612 314.329747,292.277072 312.317017,288.508274 C310.304286,284.739475 307.821191,281.642313 304.870904,279.21957 C301.918635,276.796828 298.061331,274.743326 293.298595,273.061055 C288.535859,271.378385 284.141166,270.13379 280.116101,269.324883 C276.091036,268.517965 271.126433,267.911981 265.22229,267.508523 C259.318148,267.105064 254.688669,266.902539 251.334647,266.902539 C247.980228,266.902539 243.652162,266.969384 238.352434,267.105064 C233.052309,267.238754 229.865651,267.307589 228.792856,267.307589 L228.792856,335.557378 C229.866048,335.557378 232.349143,335.591596 236.238968,335.658839 C240.130776,335.725684 243.349559,335.760301 245.899679,335.760301 C248.449799,335.760301 252.004103,335.658839 256.566557,335.458303 C261.129011,335.25737 265.05334,334.987999 268.340734,334.651386 C271.628128,334.314772 275.451325,333.743007 279.813894,332.934498 C284.17448,332.12758 287.898528,331.184983 290.984054,330.106705 C294.06958,329.030019 297.256238,327.617118 300.543633,325.866011 C303.831027,324.116496 306.480296,322.097213 308.493027,319.808559 C310.505757,317.519905 312.150049,314.827793 313.423523,311.732221 C314.695807,308.635854 315.335915,305.202078 315.335915,301.431688 L315.335915,301.431688 Z M301.046121,205.316186 C301.046121,200.874559 300.207715,196.935862 298.530505,193.503677 C296.853296,190.071492 294.806458,187.2437 292.391974,185.021891 C289.977094,182.800082 286.756328,180.916877 282.731263,179.367898 C278.706198,177.819316 275.016655,176.710003 271.662235,176.035185 C268.307816,175.362355 264.182016,174.822819 259.284041,174.41936 C254.386065,174.015901 250.494257,173.847595 247.610996,173.91444 C244.725751,173.981285 241.102836,174.04813 236.74225,174.116965 C232.381664,174.18381 229.730808,174.218426 228.792856,174.218426 L228.792856,236.208238 C229.463898,236.208238 231.779232,236.242456 235.735686,236.309699 C239.694122,236.376544 242.813756,236.376544 245.094983,236.309699 C247.37621,236.242854 250.730629,236.107174 255.157843,235.90624 C259.585058,235.703715 263.274602,235.334475 266.226871,234.795336 C269.17914,234.256197 272.634295,233.516125 276.592732,232.573528 C280.551168,231.63093 283.804455,230.386335 286.354178,228.837356 C288.904298,227.288775 291.38541,225.472016 293.800291,223.386286 C296.215171,221.300157 298.027223,218.707517 299.233672,215.611945 C300.440121,212.516374 301.046121,209.086576 301.046121,205.316186 L301.046121,205.316186 Z" id="形状" fill="#FFFFFF"></path>
            </g>
        </g>
    </g>
</svg>