<?xml version="1.0" encoding="UTF-8"?>
<svg width="512px" height="512px" viewBox="0 0 512 512" version="1.1" xmlns="http://www.w3.org/2000/svg" xmlns:xlink="http://www.w3.org/1999/xlink">
    <title>DAI</title>
    <defs>
        <linearGradient x1="50%" y1="29.9545434%" x2="50%" y2="106.918046%" id="linearGradient-1">
            <stop stop-color="#F5AC37" offset="0%"></stop>
            <stop stop-color="#FBD668" offset="100%"></stop>
        </linearGradient>
    </defs>
    <g id="DAI" stroke="none" stroke-width="1" fill="none" fill-rule="evenodd">
        <g id="USDT" fill="url(#linearGradient-1)" fill-rule="nonzero">
            <circle id="椭圆形" cx="256" cy="256" r="256"></circle>
        </g>
        <path d="M141.892484,382.9807 L141.892484,303.825978 C141.892484,301.956182 141.892484,301.644549 139.55167,301.644549 L108.496868,301.644549 C106.780271,301.644549 106,301.644549 106,299.307304 L106,272.195254 L139.239562,272.195254 C141.112213,272.195254 141.892485,272.195254 141.892484,269.702191 L141.892484,242.745958 C141.892484,241.031977 141.892484,240.564528 139.55167,240.564528 L108.496868,240.564528 C106.780271,240.564528 106,240.564528 106,238.227283 L106,213.140845 C106,211.582682 106,211.115232 108.340814,211.115232 L139.083507,211.115232 C141.268267,211.115232 141.73643,211.115232 141.73643,208.466354 L141.73643,131.804695 C141.73643,129.467449 141.73643,129 144.545407,129 L251.910751,129 C259.713466,129.311633 267.516179,130.090715 275.162839,131.648879 C290.924322,134.453573 306.061587,140.218779 319.950418,148.165415 C329.15762,153.618988 337.584552,160.163276 345.075157,167.642462 C350.693111,173.563485 355.842902,179.951956 360.368476,186.652061 C364.89405,193.507982 368.639353,200.831351 371.604384,208.466354 C372.072547,210.491967 373.945198,211.738498 375.973904,211.426865 L401.566806,211.426865 C404.843946,211.426865 404.843946,211.426865 405,214.543193 L405,237.91565 C405,240.252895 404.063674,240.720344 401.878915,240.720344 L382.060021,240.720344 C380.031315,240.720344 379.407098,240.720344 379.563153,243.213407 C380.343424,251.939124 380.343424,260.664841 379.563153,269.390559 C379.563153,271.883621 379.563153,272.039437 382.216075,272.039437 L404.843946,272.039437 L404.843946,298.216589 C404.843946,300.709651 404.063674,301.332916 402.034969,301.332916 L375.037578,301.332916 C373.164927,301.021284 371.292276,302.267815 370.824113,303.981795 C364.425887,320.654148 354.126305,335.768337 340.705637,347.766197 C335.867954,352.129056 331.030271,356.491915 325.412317,360.075692 C319.794363,363.659469 314.176409,366.775796 308.246347,369.580491 C297.322547,374.410798 286.086639,377.994575 274.382568,380.331821 C263.302714,382.357434 252.066806,383.136516 240.830898,382.9807 L141.892484,382.9807 L141.892484,382.9807 Z M339.395396,302 L173.801402,302 C171.622534,302 171,302 171,304.79661 L171,354.20339 C171,356.533898 171,357 173.801402,357 L246.949125,357 C250.839961,357 255.820232,356.689265 259.399801,356.223164 C270.294143,354.669492 278.542716,353.115819 288.347623,349.387006 C291.927193,348.144068 299.241965,344.881356 299.864499,344.570622 C316.984179,335.71469 330.835556,321.731639 339.706663,304.485876 C339.55103,304.796611 340.640464,302.621469 339.395396,302 L339.395396,302 Z M339.34348,208.888889 C337.936194,205.777778 336.216177,202.666667 334.18343,199.866667 C331.212492,195.044445 327.616092,190.533333 323.550598,186.644445 C321.674216,184.155556 319.485104,182.133333 316.983261,180.266667 C304.630413,169.688889 289.775721,162.222222 273.982839,158.644445 C266.008215,156.777778 257.877226,156 249.589872,156 L172.501843,156 C170.31273,156 170,156.933333 170,158.644445 L170,209.355556 C170,211.533334 170,212 172.658208,212 L338.248924,212 C338.248924,212 340.125306,212 339.968941,210.911111 C340.125306,210.911111 339.656211,209.511111 339.34348,208.888889 L339.34348,208.888889 Z M259.583751,272 L346.607928,272 C348.479416,272 349.259203,272 349.41516,269.477832 C350.194947,260.492611 350.194947,251.507389 349.41516,242.522167 C349.41516,240.788177 348.635373,240 346.763886,240 L173.651274,240 C171.467872,240 171,240.788177 171,242.679803 L171,268.689655 C171,272 171,272 174.431061,272 L259.583751,272 L259.583751,272 Z" id="形状" fill="#FEFEFD" fill-rule="nonzero"></path>
    </g>
</svg>