<?xml version="1.0" encoding="UTF-8"?>
<svg width="512px" height="512px" viewBox="0 0 512 512" version="1.1" xmlns="http://www.w3.org/2000/svg" xmlns:xlink="http://www.w3.org/1999/xlink">
    <title>DOT</title>
    <g id="DOT" stroke="none" stroke-width="1" fill="none" fill-rule="evenodd">
        <g id="HDOT" fill-rule="nonzero">
            <circle id="椭圆形" fill="#E6007A" cx="256" cy="256" r="256"></circle>
            <g id="编组-2" transform="translate(151.000000, 117.000000)" fill="#FFFFFF">
                <path d="M105.612295,0 C47.3747666,0.217984304 0.217985028,47.3747659 -1.11770767e-13,105.612295 C-1.11770767e-13,117.277281 1.877937,128.866196 5.56551688,139.932978 C8.31433701,147.452489 16.4523363,151.521488 24.1172374,149.208838 C31.55545,146.382224 35.5048872,138.25103 33.1280731,130.657117 C29.991158,122.050898 28.5948499,112.907332 29.0201921,103.757123 C30.2416455,62.5854001 63.9619671,29.8379733 105.151801,29.822054 C146.341635,29.8061346 180.08726,62.5274867 181.340537,103.698253 C182.593815,144.869019 150.900968,179.582381 109.786432,182.071886 C109.786432,182.071886 95.0113122,182.999472 87.590624,183.927058 C84.8695249,184.311079 82.1711723,184.841903 79.5073743,185.517205 C79.1117056,185.813957 78.5580415,185.774609 78.2083165,185.424884 C77.8585914,185.075159 77.8192437,184.521495 78.1159953,184.125826 L80.4349603,171.603415 L94.3487507,108.593821 C96.0136983,100.781374 91.0301654,93.0984277 83.2177183,91.4334799 C75.4052713,89.7685322 67.7223248,94.7520649 66.0573769,102.564512 C66.0573769,102.564512 32.9293046,256.41128 32.9293046,257.802659 C32.0073431,261.554205 32.6711914,265.519863 34.7646649,268.766627 C36.8581384,272.013392 40.1964105,274.254615 43.9940808,274.963 C47.753842,275.863773 51.7185201,275.182648 54.9620789,273.078718 C58.2056377,270.974788 60.4440269,267.632301 61.1544222,263.831968 C61.6182153,261.976796 65.7923524,241.569903 65.7923524,241.569903 C68.9415475,226.185187 81.3429772,214.39193 96.8664842,212.019663 C100.046779,211.55587 113.496777,210.628284 113.496777,210.628284 C169.306356,205.470076 211.351804,157.59025 209.25524,101.58203 C207.158675,45.5738103 161.651324,0.971361245 105.612295,0 Z" id="路径"></path>
                <path d="M195.225487,243.903677 C190.611501,242.968303 185.814986,243.910647 181.897823,246.522089 C177.98066,249.133531 175.265989,253.198644 174.354802,257.817467 C173.362948,262.436832 174.281968,267.260975 176.902732,271.19212 C179.523495,275.123265 183.623081,277.827031 188.268592,278.688153 C192.885238,279.738297 197.730594,278.842046 201.666139,276.209993 C205.601684,273.57794 208.280457,269.442131 209.073021,264.774363 C210.69363,255.252088 204.628962,246.11156 195.225487,243.903677 L195.225487,243.903677 Z" id="路径"></path>
            </g>
        </g>
    </g>
</svg>