<?xml version="1.0" encoding="UTF-8"?>
<svg width="512px" height="512px" viewBox="0 0 512 512" version="1.1" xmlns="http://www.w3.org/2000/svg" xmlns:xlink="http://www.w3.org/1999/xlink">
    <title>EOS</title>
    <g id="EOS" stroke="none" stroke-width="1" fill="none" fill-rule="evenodd">
        <g id="oLTC" fill="#000000" fill-rule="nonzero">
            <g id="at_HLTC">
                <g id="编组">
                    <circle id="椭圆形" cx="256" cy="256" r="256"></circle>
                </g>
            </g>
        </g>
        <g id="eos" transform="translate(153.000000, 106.000000)" fill="#FFFFFF" fill-rule="nonzero">
            <path d="M172.494141,95.2382812 L206.126953,236.607422 C206.722656,237.203125 206.821289,237.797852 206.422852,238.391602 C206.026367,238.790039 205.431641,239.286133 204.638672,239.879883 L105.234375,300 L100.470703,300 L1.36523437,239.879883 C0.76953125,239.879883 0.372070312,239.483398 0.172851563,238.69043 L0.172851563,236.607422 L34.6962891,95.2382812 L34.6962891,94.0488281 L100.470703,1.78710938 C101.066406,0.595703125 102.058594,0 103.447266,0 C104.835938,0 105.828125,0.595703125 106.423828,1.78710938 L172.494141,94.0488281 L172.494141,95.2382812 Z M156.720703,150.298828 L184.400391,194.941406 L166.543945,121.725586 L156.720703,150.298828 Z M80.2324219,242.560547 L30.8291016,242.560547 L92.1386719,279.462891 L80.2324219,242.560547 L80.2324219,242.560547 Z M56.4228516,166.962891 L19.2216797,229.464844 L76.6611328,229.464844 L56.4228516,166.962891 Z M109.995117,73.5117188 L147.196289,136.010742 L159.401367,99.1083984 L109.995117,30.3574219 L109.995117,73.5117188 L109.995117,73.5117188 Z M142.435547,152.677734 L102.852539,88.9892578 L64.4589844,152.677734 L89.7568359,229.464844 L117.436523,229.464844 L142.435547,152.677734 Z M97.1982422,73.5117188 L97.1982422,30.3574219 L47.7919922,99.1083984 L59.9941406,136.010742 L97.1982422,73.5117188 Z M176.06543,242.560547 L126.960938,242.560547 L115.054688,279.462891 L176.06543,242.560547 Z M131.72168,229.464844 L189.161133,229.464844 L152.255859,166.962891 L131.72168,229.464844 L131.72168,229.464844 Z M51.3632812,150.298828 L42.1376953,120.536133 L23.9824219,196.130859 L51.3632812,150.298828 Z M113.865234,242.560547 L94.8164062,242.560547 L104.041992,272.619141 L113.865234,242.560547 Z" id="形状"></path>
        </g>
    </g>
</svg>