<?xml version="1.0" encoding="UTF-8"?>
<svg width="512px" height="512px" viewBox="0 0 512 512" version="1.1" xmlns="http://www.w3.org/2000/svg" xmlns:xlink="http://www.w3.org/1999/xlink">
    <title>FIL</title>
    <g id="FIL" stroke="none" stroke-width="1" fill="none" fill-rule="evenodd">
        <g id="HFIL" fill-rule="nonzero">
            <g id="编组" fill="#41C1CA">
                <circle id="椭圆形" cx="256" cy="256" r="256"></circle>
            </g>
            <g id="filecoin" transform="translate(157.000000, 117.000000)" fill="#FFFFFF">
                <path d="M193.527462,8.60913826 C198.718632,12.9965672 202.59233,26.6725852 191.393821,30.1236979 C180.195312,33.5748106 176.860204,20.0852273 173.968395,15.0887784 C171.076586,10.0923295 160.371094,-1.40033144 142.257931,30.1236979 C137.804214,40.8623343 136.586174,37.212358 126.456558,79.839607 C124.981652,87.9681581 123.56613,95.71003 122.209991,103.065223 L169.899976,108.778409 L169.899976,126.220407 L119.073745,119.811198 C117.217685,129.6439 115.476247,138.650765 113.849432,146.831795 L164.393939,152.888849 L164.393939,170.351563 L110.448035,163.565341 L110.340317,164.108073 C97.3023201,242.228338 57.0945786,278.305516 42.7598248,278.305516 C28.425071,278.305516 16.6133996,280.480587 9.01100852,273.309067 C1.40861742,266.137547 -3.31439394,260.693655 3.69140625,251.52107 C20.4083807,249.553149 17.9515862,260.548651 23.4161932,263.879616 C29.221555,267.57057 35.8884059,269.685286 42.7598248,270.015388 C47.6775568,270.015388 56.5269886,270.015388 71.3464725,217.598248 C77.1466619,195.176373 81.2647964,176.437618 84.4714725,160.300663 L31.9341856,153.73402 L31.9341856,137.017045 L87.6574337,143.691406 C89.5052083,133.673651 91.0671165,124.724787 92.5710227,116.476089 L37.4195076,109.532434 L37.4195076,92.8030303 L95.9144176,99.8461174 L96.0138494,99.551965 C99.8587629,80.9689154 105.711243,62.8585928 113.468277,45.5397727 C118.16643,35.2320076 138.74053,2.27450284 164.012784,0.381155303 C189.285038,-1.51219223 188.336293,4.27142519 193.527462,8.60913826 Z" id="路径"></path>
            </g>
        </g>
    </g>
</svg>