<?xml version="1.0" encoding="UTF-8"?>
<svg width="512px" height="512px" viewBox="0 0 512 512" version="1.1" xmlns="http://www.w3.org/2000/svg" xmlns:xlink="http://www.w3.org/1999/xlink">
    <title>HPT</title>
    <g id="HPT" stroke="none" stroke-width="1" fill="none" fill-rule="evenodd">
        <g id="oLTC" fill="#005FFA" fill-rule="nonzero">
            <g id="at_HLTC">
                <g id="编组">
                    <circle id="椭圆形" cx="256" cy="256" r="256"></circle>
                </g>
            </g>
        </g>
        <polygon id="路径" fill="#FFFFFF" fill-rule="nonzero" points="253.065116 106 251.78516 106.33 214.226433 116.09 182.577505 124.3 182.547507 124.37 169.977933 171.95 144.668791 267.64 117.799701 274.6 112.479882 295.47 139.118979 288.55 109 402.48 179.49761 384.18 209.616589 270.27 286.823972 250.24 258.24494 358.35 251.165181 385.08 245.625369 406 245.645368 406 286.613979 395.37 316.112979 387.72 316.132978 387.72 356.051625 377.36 361.371445 356.48 321.672791 366.78 328.722552 340.05 357.321582 231.95 398.69018 221.21 404 200.36 362.871394 211.03 376.810922 158.25 376.970916 157.71 381.800752 139.47 328.082573 125.51 328.052574 125.51 327.942578 125.49 271.394495 110.79 266.544659 129.03 315.522999 141.78 315.373004 142.32 292.373784 229.32 215.156402 249.34 240.445544 153.74 248.075285 124.86 252.905122 106.61 253.015118 106.21"></polygon>
    </g>
</svg>