<?xml version="1.0" encoding="UTF-8"?>
<svg width="512px" height="512px" viewBox="0 0 512 512" version="1.1" xmlns="http://www.w3.org/2000/svg" xmlns:xlink="http://www.w3.org/1999/xlink">
    <title>HT</title>
    <g id="HT" stroke="none" stroke-width="1" fill="none" fill-rule="evenodd">
        <path d="M256,15 C122.899375,15 15,122.899375 15,256 C15,389.100625 122.899375,497 256,497 C389.100625,497 497,389.100625 497,256 C497,122.899375 389.100625,15 256,15 Z" id="路径" fill="#FFFFFF" fill-rule="nonzero"></path>
        <g id="oLTC" fill-rule="nonzero">
            <g id="at_HLTC">
                <g id="编组">
                    <path d="M256,0 C397.384896,0 512,114.615104 512,256 C512,397.384896 397.384896,512 256,512 C114.615104,512 0,397.384896 0,256 C0,114.615104 114.615104,0 256,0 Z M256,15 C122.899375,15 15,122.899375 15,256 C15,389.100625 122.899375,497 256,497 C389.100625,497 497,389.100625 497,256 C497,122.899375 389.100625,15 256,15 Z" id="椭圆形" fill="#1E2241"></path>
                    <g id="编组-2" transform="translate(159.000000, 106.000000)">
                        <path d="M127.525975,92.2513687 C127.525975,49.2063992 106.718049,12.2208809 90.8834449,0.159143136 C90.8262802,0.101978501 89.6829875,-0.526832474 89.7401522,1.18810655 L89.7401522,1.24527118 C88.4253656,84.3626492 46.2378656,106.885515 23.0861888,137.239936 C-30.4770734,207.209448 19.2561583,283.981552 69.9611888,298.158381 C98.3148473,306.104265 63.3872558,284.095881 58.9284144,237.678198 C53.4977741,181.542527 127.525975,138.726216 127.525975,92.2513687" id="路径" fill="#1E2241"></path>
                        <path d="M155.307988,120.547863 C154.965,120.319204 154.450518,120.14771 154.10753,120.719357 C153.192896,131.180485 141.874299,153.531857 127.468811,174.111125 C78.8217071,243.794814 106.546555,277.350454 122.1525,295.414479 C131.184512,305.875607 122.1525,295.414479 144.789695,284.724692 C146.561799,283.867222 188.977957,261.458686 193.551128,210.296338 C198.009969,160.791765 166.512256,129.579875 155.307988,120.547863" id="路径" fill="#62BFF4"></path>
                    </g>
                </g>
            </g>
        </g>
    </g>
</svg>