<?xml version="1.0" encoding="UTF-8"?>
<svg width="512px" height="512px" viewBox="0 0 512 512" version="1.1" xmlns="http://www.w3.org/2000/svg" xmlns:xlink="http://www.w3.org/1999/xlink">
    <title>HUSD</title>
    <g id="HUSD" stroke="none" stroke-width="1" fill="none" fill-rule="evenodd">
        <g id="oLTC" fill="#005FFA" fill-rule="nonzero">
            <g id="at_HLTC">
                <g id="编组">
                    <circle id="椭圆形" cx="256" cy="256" r="256"></circle>
                </g>
            </g>
        </g>
        <path d="M310.882237,233.878289 L201.117342,233.878289 C198.900699,233.878289 197.094545,232.069079 197.094545,229.848684 L197.094545,110.851974 L148,110.851974 L148,229.766447 C148,259.125 171.808391,282.973684 201.117342,282.973684 L310.882237,282.973684 C313.09888,282.973684 314.905034,284.782895 314.905034,287.003289 L314.905034,405.917763 L363.99979,405.917763 L363.99979,287.085526 C364.081677,257.726974 340.191188,233.878289 310.882237,233.878289 Z M359.155803,204.355263 L359.155803,106 L310.061258,106 L310.061258,155.177632 C310.061258,182.315789 331.981398,204.355263 359.155803,204.355263 Z M152.925874,307.644737 L152.925874,406 L202.020419,406 L202.020419,356.822368 C202.020419,329.601974 180.018182,307.644737 152.925874,307.644737 Z" id="形状" fill="#FFFFFF" fill-rule="nonzero"></path>
    </g>
</svg>