<?xml version="1.0" encoding="UTF-8"?>
<svg width="512px" height="512px" viewBox="0 0 512 512" version="1.1" xmlns="http://www.w3.org/2000/svg" xmlns:xlink="http://www.w3.org/1999/xlink">
    <title>MDX</title>
    <g id="MDX" stroke="none" stroke-width="1" fill="none" fill-rule="evenodd">
        <g id="oLTC" fill="#000000" fill-rule="nonzero">
            <g id="at_HLTC">
                <g id="编组">
                    <circle id="椭圆形" cx="256" cy="256" r="256"></circle>
                </g>
            </g>
        </g>
        <g id="编组-2" transform="translate(101.000000, 132.000000)" fill-rule="nonzero">
            <path d="M44.8076186,248.67247 C20.2428841,248.67247 0.291830709,228.721417 0.291830709,204.156682 L0.291830709,84.0762795 C0.291830709,52.9027586 17.8736965,25.7194483 46.3039476,12.8759577 C74.7341988,0.0324670143 106.780578,4.89553628 130.098372,25.4700601 L200.675223,87.817102 C215.139737,101.782839 222.995464,120.611646 222.995464,140.687394 C222.995464,161.636 214.01749,181.711747 198.43073,195.677485 C182.843969,209.643222 161.770669,216.376702 140.822063,214.007515 C107.154661,210.266692 79.7219621,183.208076 75.8564455,149.540674 C73.3625638,127.968597 80.2207385,106.521215 94.8099463,90.685066 L95.5581108,89.8122074 L105.408943,80.2107629 L136.582464,112.007754 L127.230408,121.235117 C121.993257,127.095738 119.374681,134.702078 119.873457,142.682499 C120.746316,156.648236 131.719395,168.36948 145.685132,169.865809 C155.411271,170.988056 164.763327,167.371928 171.24742,159.890283 C175.112936,155.52599 177.606818,149.914756 178.230288,144.054134 C179.227841,134.951466 176.110489,126.347574 169.875785,119.988176 L100.545874,58.7633805 C90.0715711,49.5360183 76.1058337,47.665607 63.5117312,53.7756172 C51.9151814,59.3868509 44.8076186,71.4821771 44.8076186,84.4503618 L44.8076186,248.67247 L44.8076186,248.67247 Z" id="路径" fill="#FFFFFF"></path>
            <path d="M265.266759,242.811848 L265.266759,78.839128 C265.266759,65.8709433 258.159196,53.9003112 246.562646,48.1643834 C233.84385,41.9296792 220.002806,43.8000904 209.528503,53.1521467 L191.447861,69.1129895 L162.020057,35.694975 L178.978453,20.6069908 C202.545635,-0.216921153 236.462426,-5.82815493 265.017371,7.51411205 C292.699457,20.4822968 309.907241,47.540913 309.907241,78.2156576 L309.907241,198.29606 C309.782547,222.860795 289.831493,242.811848 265.266759,242.811848 L265.266759,242.811848 Z" id="路径" fill="#4CA9DC"></path>
        </g>
    </g>
</svg>