<?xml version="1.0" encoding="UTF-8"?>
<svg width="512px" height="512px" viewBox="0 0 512 512" version="1.1" xmlns="http://www.w3.org/2000/svg" xmlns:xlink="http://www.w3.org/1999/xlink">
    <title>OKB</title>
    <g id="OKB" stroke="none" stroke-width="1" fill="none" fill-rule="evenodd">
        <g fill-rule="nonzero">
            <path d="M255.900059,0 C397.244845,0 511.800097,114.555252 511.800097,255.900039 C511.800097,397.244826 397.244845,511.800078 255.900059,511.800078 C114.555272,511.800078 1.95e-05,397.244826 1.95e-05,255.900039 C1.95e-05,114.555252 114.605252,0 255.900059,0 Z" id="路径" fill="#005DF5"></path>
            <path d="M180.929344,160.937134 C180.929344,187.721591 195.21868,212.47145 218.414701,225.863679 C241.610721,239.255908 270.189396,239.255908 293.385416,225.863679 C316.581437,212.47145 330.870773,187.721591 330.870773,160.937134 C330.870773,134.152677 316.581436,109.402818 293.385416,96.0105894 C270.189396,82.6183608 241.610721,82.6183608 218.414701,96.0105894 C195.218681,109.402818 180.929344,134.152677 180.929344,160.937134 L180.929344,160.937134 Z" id="路径" fill="#FFFFFF"></path>
            <path d="M180.929344,350.862944 C180.929344,377.647401 195.21868,402.39726 218.414701,415.789489 C241.610721,429.181718 270.189396,429.181718 293.385416,415.789489 C316.581437,402.39726 330.870773,377.647401 330.870773,350.862944 C330.870773,324.078487 316.581436,299.328628 293.385416,285.936399 C270.189396,272.544171 241.610721,272.544171 218.414701,285.936399 C195.218681,299.328628 180.929344,324.078487 180.929344,350.862944 L180.929344,350.862944 Z" id="路径" fill="#FFFFFF"></path>
            <path d="M275.892249,255.900039 C275.892249,297.305221 309.457781,330.870754 350.862964,330.870754 C392.268146,330.870754 425.833679,297.305221 425.833679,255.900039 C425.833679,214.494857 392.268146,180.929324 350.862964,180.929324 C309.457781,180.929324 275.892249,214.494857 275.892249,255.900039 L275.892249,255.900039 Z" id="路径" fill="#FFFFFF"></path>
            <path d="M85.966439,255.900039 C85.966439,282.684496 100.255776,307.434355 123.451796,320.826583 C146.647816,334.218812 175.226491,334.218812 198.422511,320.826583 C221.618531,307.434355 235.907868,282.684496 235.907868,255.900039 C235.907868,229.115582 221.618531,204.365723 198.422511,190.973495 C175.226491,177.581266 146.647816,177.581266 123.451796,190.973495 C100.255776,204.365723 85.966439,229.115582 85.966439,255.900039 Z" id="路径" fill="#FFFFFF"></path>
            <path d="M232.059371,232.009371 C209.86804,224.56228 192.274912,206.969153 184.827821,184.777821 C207.019152,192.274892 224.61228,209.818039 232.059371,232.009371 Z M327.022276,184.827801 C319.575185,207.019133 301.982058,224.61226 279.790727,232.059352 C287.237818,209.81804 304.780964,192.274893 327.022276,184.827801 Z M232.059371,279.790707 C224.61228,301.982038 207.019153,319.575166 184.827821,327.022257 C192.274912,304.780945 209.818059,287.237798 232.059371,279.790707 Z M327.022276,326.972277 C304.830945,319.525186 287.237818,301.932058 279.790727,279.740727 C301.982058,287.237798 319.575185,304.780945 327.022276,326.972277 Z" id="形状" fill="#196EF7"></path>
        </g>
    </g>
</svg>