<?xml version="1.0" encoding="UTF-8"?>
<svg width="512px" height="512px" viewBox="0 0 512 512" version="1.1" xmlns="http://www.w3.org/2000/svg" xmlns:xlink="http://www.w3.org/1999/xlink">
    <title>OKT</title>
    <g id="OKT" stroke="none" stroke-width="1" fill="none" fill-rule="evenodd">
        <g id="oOKT" transform="translate(5.000000, 5.000000)" fill-rule="nonzero">
            <g id="OKB">
                <path d="M250.900059,0 C320.191593,0 382.916685,28.0791038 428.318839,73.4812583 C473.720994,118.883413 501.800097,181.608505 501.800097,250.900039 C501.800097,320.191573 473.720994,382.916665 428.318839,428.31882 C382.916685,473.720974 320.191593,501.800078 250.900059,501.800078 C181.608524,501.800078 118.883432,473.720974 73.4812778,428.31882 C28.0791233,382.916665 1.95e-05,320.191573 1.95e-05,250.900039 C1.95e-05,181.614663 28.0865945,118.894683 73.4877362,73.4935417 C118.896936,28.0843417 181.626871,0 250.900059,0 Z" id="路径" stroke="#005DF5" stroke-width="10" fill="#FFFFFF"></path>
                <path d="M175.929344,155.937134 C175.929344,182.721591 190.21868,207.47145 213.414701,220.863679 C236.610721,234.255908 265.189396,234.255908 288.385416,220.863679 C311.581437,207.47145 325.870773,182.721591 325.870773,155.937134 C325.870773,129.152677 311.581436,104.402818 288.385416,91.0105894 C265.189396,77.6183608 236.610721,77.6183608 213.414701,91.0105894 C190.218681,104.402818 175.929344,129.152677 175.929344,155.937134 L175.929344,155.937134 Z" id="路径" fill="#7BBDF7"></path>
                <path d="M175.929344,345.862944 C175.929344,372.647401 190.21868,397.39726 213.414701,410.789489 C236.610721,424.181718 265.189396,424.181718 288.385416,410.789489 C311.581437,397.39726 325.870773,372.647401 325.870773,345.862944 C325.870773,319.078487 311.581436,294.328628 288.385416,280.936399 C265.189396,267.544171 236.610721,267.544171 213.414701,280.936399 C190.218681,294.328628 175.929344,319.078487 175.929344,345.862944 L175.929344,345.862944 Z" id="路径" fill="#0E74F5"></path>
                <path d="M270.892249,250.900039 C270.892249,292.305221 304.457781,325.870754 345.862964,325.870754 C387.268146,325.870754 420.833679,292.305221 420.833679,250.900039 C420.833679,209.494857 387.268146,175.929324 345.862964,175.929324 C304.457781,175.929324 270.892249,209.494857 270.892249,250.900039 L270.892249,250.900039 Z" id="路径" fill="#4494F7"></path>
                <path d="M80.966439,250.900039 C80.966439,277.684496 95.255776,302.434355 118.451796,315.826583 C141.647816,329.218812 170.226491,329.218812 193.422511,315.826583 C216.618531,302.434355 230.907868,277.684496 230.907868,250.900039 C230.907868,224.115582 216.618531,199.365723 193.422511,185.973495 C170.226491,172.581266 141.647816,172.581266 118.451796,185.973495 C95.255776,199.365723 80.966439,224.115582 80.966439,250.900039 Z" id="路径" fill="#005DF5"></path>
                <path d="M227.059371,227.009371 C204.86804,219.56228 187.274912,201.969153 179.827821,179.777821 C202.019152,187.274892 219.61228,204.818039 227.059371,227.009371 Z M322.022276,179.827801 C314.575185,202.019133 296.982058,219.61226 274.790727,227.059352 C282.237818,204.81804 299.780964,187.274893 322.022276,179.827801 Z M227.059371,274.790707 C219.61228,296.982038 202.019153,314.575166 179.827821,322.022257 C187.274912,299.780945 204.818059,282.237798 227.059371,274.790707 Z M322.022276,321.972277 C299.830945,314.525186 282.237818,296.932058 274.790727,274.740727 C296.982058,282.237798 314.575185,299.780945 322.022276,321.972277 Z" id="形状" fill="#196EF7"></path>
            </g>
        </g>
    </g>
</svg>