<?xml version="1.0" encoding="UTF-8"?>
<svg width="512px" height="512px" viewBox="0 0 512 512" version="1.1" xmlns="http://www.w3.org/2000/svg" xmlns:xlink="http://www.w3.org/1999/xlink">
    <title>USDC</title>
    <g id="USDC" stroke="none" stroke-width="1" fill="none" fill-rule="evenodd">
        <g id="USDT" fill="#0077D0" fill-rule="nonzero">
            <circle id="椭圆形" cx="256" cy="256" r="256"></circle>
        </g>
        <g id="USDT备份" transform="translate(80.000000, 45.000000)" fill-rule="nonzero">
            <circle id="椭圆形" stroke="#FFFFFF" stroke-width="25" cx="176" cy="211" r="176"></circle>
            <rect id="矩形" fill="#0077D0" x="116" y="0" width="120" height="424"></rect>
            <g id="currency-usd" transform="translate(102.000000, 79.000000)" fill="#FFFFFF">
                <path d="M80.2082516,115.866667 C46.9833006,107.213333 36.298625,98.2666668 36.298625,84.3333332 C36.298625,68.3466668 51.0815325,57.2 75.817289,57.2 C101.870334,57.2 111.530452,69.6666668 112.408644,88 L144.755403,88 C143.730845,62.7733332 128.362475,39.6 97.7721023,32.12 L97.7721023,10 C97.7721023,4.4771525 93.2949498,-1.01453063e-15 87.7721023,0 L63.8624756,0 C58.3396281,1.01453063e-15 53.8624756,4.4771525 53.8624756,10 L53.8624756,31.68 L53.8624756,31.68 C25.4675835,37.84 2.6345776,56.32 2.6345776,84.6266668 C2.6345776,118.506667 30.5903735,135.373333 71.4263263,145.2 C108.017682,154 115.335953,166.906667 115.335953,180.546667 C115.335953,190.666667 108.164047,206.8 75.817289,206.8 C45.6660118,206.8 33.8104125,193.306667 31.9076623,176 L0,176 C1.75638507,208.12 25.7603146,226.16 53.8624756,232.173333 L53.8624756,254 C53.8624756,259.522847 58.3396281,264 63.8624756,264 L87.7721023,264 C93.2949498,264 97.7721023,259.522847 97.7721023,254 L97.7721023,232.466667 L97.7721023,232.466667 C126.31336,227.333333 149,210.466667 149,180.4 C149,138.746667 113.433202,124.666667 80.2082516,115.866667 Z" id="路径"></path>
            </g>
        </g>
    </g>
</svg>