<?xml version="1.0" encoding="UTF-8"?>
<svg width="512px" height="512px" viewBox="0 0 512 512" version="1.1" xmlns="http://www.w3.org/2000/svg" xmlns:xlink="http://www.w3.org/1999/xlink">
    <title>USDK</title>
    <g id="USDK" stroke="none" stroke-width="1" fill="none" fill-rule="evenodd">
        <path d="M255.900059,0 C397.244845,0 511.800097,114.555252 511.800097,255.900039 C511.800097,397.244826 397.244845,511.800078 255.900059,511.800078 C114.555272,511.800078 1.95000003e-05,397.244826 1.95000003e-05,255.900039 C1.95000003e-05,114.555252 114.605252,0 255.900059,0 Z" id="路径" fill="#005DF5" fill-rule="nonzero"></path>
        <polygon id="路径-2" fill="#FFFFFF" points="151.372227 119.715232 151.372227 398.116376 256 398.116376 256 319.375311 273.328659 319.375311 318.556583 398.116376 411.869044 398.116376 328.590513 255.900039 256 279.790707 256 119.715232"></polygon>
        <path d="M69.5952469,268.01185 C73.1416356,269.017031 75.7916033,269.759122 77.5451501,270.238122 C169.673738,295.404056 237.6989,291.62995 281.620635,258.915804 C326.79636,225.267652 367.822149,178.867462 404.698004,119.715232 L299.786518,119.715232 L318.337295,160.937134 C275.219046,206.838862 242.188447,234.644072 219.245498,244.352765 C196.30255,254.061458 146.419133,261.947819 69.5952469,268.01185 Z" id="路径-3" fill="#FFFFFF"></path>
    </g>
</svg>