<?xml version="1.0" encoding="UTF-8"?>
<svg width="512px" height="512px" viewBox="0 0 512 512" version="1.1" xmlns="http://www.w3.org/2000/svg" xmlns:xlink="http://www.w3.org/1999/xlink">
    <title>USDT</title>
    <g id="USDT" stroke="none" stroke-width="1" fill="none" fill-rule="evenodd">
        <g fill-rule="nonzero">
            <circle id="椭圆形" fill="#21D299" cx="256" cy="256" r="256"></circle>
            <path d="M395.530046,248.809158 C385.783021,223.109602 283.48301,219.440769 283.48301,219.440769 L283.48301,186.399114 L360.326138,186.399114 L360.326138,135 L151.543817,135 L151.543817,186.399114 L228.386946,186.399114 L228.386946,219.046413 C230.136861,219.046413 230.276854,219.179342 228.386946,219.440769 L228.386946,219.046413 C215.47695,219.086292 114.747487,227.057585 116.0118,251.011345 C117.472979,278.168687 228.386946,282.599645 228.386946,282.599645 L228.386946,392 L283.48301,392 L283.48301,282.599645 C409.621234,274.508716 395.530046,248.809158 395.530046,248.809158 Z M258.350104,273.51231 C258.350104,273.51231 158.586926,273.922146 132.721423,254.572695 C132.721423,254.572695 120.409532,246.450111 142.725383,237.948211 C142.725383,237.948211 173.040016,226.560026 228.28557,225.116883 L228.28557,264.129701 L283.553063,264.129701 L283.553063,225.116883 C283.553063,225.116883 379.529654,228.72692 380.981984,248.957081 C380.981984,248.957081 385.343359,270.630385 258.350104,273.51231 Z" id="形状" fill="#FFFFFF"></path>
        </g>
    </g>
</svg>